<mxfile host="Electron" modified="2024-03-04T09:57:47.902Z" agent="Mozilla/5.0 (Windows NT 10.0; Win64; x64) AppleWebKit/537.36 (KHTML, like Gecko) draw.io/21.2.8 Chrome/112.0.5615.165 Electron/24.2.0 Safari/537.36" etag="Ro33xQ2nYmksxb68_9q1" version="21.2.8" type="device">
  <diagram name="Page-1" id="E-e3QB8yrydNNGdsqELs">
    <mxGraphModel dx="1668" dy="1021" grid="1" gridSize="10" guides="1" tooltips="1" connect="1" arrows="1" fold="1" page="1" pageScale="1" pageWidth="1169" pageHeight="827" math="0" shadow="0">
      <root>
        <mxCell id="0" />
        <mxCell id="1" parent="0" />
        <mxCell id="BNmCmgieaK2nJWvq4B3u-1" value="&lt;h1&gt;Algoritma Multi User&lt;/h1&gt;&lt;p&gt;1. user masuk ke halaman form Login&lt;/p&gt;&lt;p&gt;2. jika user tidak mempunyai akun, kilik &quot;daftar&quot; dan akan diarahkan ke Register form&lt;/p&gt;&lt;p&gt;3. jika user punya akun lanjut proses login&lt;/p&gt;&lt;p&gt;4. Input username dan password&lt;/p&gt;&lt;p&gt;5. klik login&lt;/p&gt;&lt;p&gt;6. validasi apakah data sesuai dengan data di database&lt;/p&gt;&lt;p&gt;7. jika data tidak sesuai kembali ke form login&lt;/p&gt;&lt;p&gt;8. jika benar, validasi username dan level apakah admin/petugas/peminjam&lt;/p&gt;&lt;p&gt;9. jika admin diarahkan ke halaman admin jika petugas diarahkan ke halaman petugas jika peminjam diarahkan ke halaman peminjam&amp;nbsp;&lt;/p&gt;" style="text;html=1;strokeColor=none;fillColor=none;spacing=5;spacingTop=-20;whiteSpace=wrap;overflow=hidden;rounded=0;" parent="1" vertex="1">
          <mxGeometry x="350" y="220" width="420" height="340" as="geometry" />
        </mxCell>
        <mxCell id="BNmCmgieaK2nJWvq4B3u-2" value="&lt;h1&gt;Algoritma Register&lt;/h1&gt;&lt;p&gt;1. user masuk ke halaman form Register&lt;/p&gt;&lt;p&gt;2. jika user sudah punya akun, klik Login dan akan diarahkan ke Login form&lt;/p&gt;&lt;p&gt;3. jika tidak, lanjut proses Register&lt;/p&gt;&lt;p&gt;4. Input Data yang diperlukan&lt;/p&gt;&lt;p&gt;5. Klik &quot;Submit&quot;&lt;/p&gt;&lt;p&gt;6. munculkan &quot;data terkirim ke database&quot;&lt;/p&gt;&lt;p&gt;7. user akan di arahkan ke Form login&lt;/p&gt;" style="text;html=1;strokeColor=none;fillColor=none;spacing=5;spacingTop=-20;whiteSpace=wrap;overflow=hidden;rounded=0;" parent="1" vertex="1">
          <mxGeometry x="790" y="220" width="420" height="340" as="geometry" />
        </mxCell>
        <mxCell id="BNmCmgieaK2nJWvq4B3u-3" value="Mulai" style="ellipse;whiteSpace=wrap;html=1;" parent="1" vertex="1">
          <mxGeometry x="457.5" y="650" width="80" height="50" as="geometry" />
        </mxCell>
        <mxCell id="BNmCmgieaK2nJWvq4B3u-4" value="User masuk&lt;br&gt;Ke halaman Login" style="rounded=1;whiteSpace=wrap;html=1;" parent="1" vertex="1">
          <mxGeometry x="437.5" y="730" width="120" height="60" as="geometry" />
        </mxCell>
        <mxCell id="BNmCmgieaK2nJWvq4B3u-5" value="" style="endArrow=classic;html=1;rounded=0;exitX=0.5;exitY=1;exitDx=0;exitDy=0;entryX=0.5;entryY=0;entryDx=0;entryDy=0;" parent="1" source="BNmCmgieaK2nJWvq4B3u-3" target="BNmCmgieaK2nJWvq4B3u-4" edge="1">
          <mxGeometry width="50" height="50" relative="1" as="geometry">
            <mxPoint x="742.5" y="780" as="sourcePoint" />
            <mxPoint x="792.5" y="730" as="targetPoint" />
          </mxGeometry>
        </mxCell>
        <mxCell id="BNmCmgieaK2nJWvq4B3u-6" value="Punya&lt;br&gt;Akun ?" style="rhombus;whiteSpace=wrap;html=1;" parent="1" vertex="1">
          <mxGeometry x="457.5" y="810" width="80" height="70" as="geometry" />
        </mxCell>
        <mxCell id="BNmCmgieaK2nJWvq4B3u-7" value="" style="endArrow=classic;html=1;rounded=0;exitX=0.5;exitY=1;exitDx=0;exitDy=0;entryX=0.5;entryY=0;entryDx=0;entryDy=0;" parent="1" source="BNmCmgieaK2nJWvq4B3u-4" target="BNmCmgieaK2nJWvq4B3u-6" edge="1">
          <mxGeometry width="50" height="50" relative="1" as="geometry">
            <mxPoint x="632.5" y="800" as="sourcePoint" />
            <mxPoint x="682.5" y="750" as="targetPoint" />
          </mxGeometry>
        </mxCell>
        <mxCell id="BNmCmgieaK2nJWvq4B3u-9" value="" style="endArrow=classic;html=1;rounded=0;exitX=0.5;exitY=1;exitDx=0;exitDy=0;entryX=0.5;entryY=0;entryDx=0;entryDy=0;" parent="1" source="BNmCmgieaK2nJWvq4B3u-6" target="BNmCmgieaK2nJWvq4B3u-10" edge="1">
          <mxGeometry width="50" height="50" relative="1" as="geometry">
            <mxPoint x="632.5" y="810" as="sourcePoint" />
            <mxPoint x="497.5" y="919.9999999999998" as="targetPoint" />
          </mxGeometry>
        </mxCell>
        <mxCell id="BNmCmgieaK2nJWvq4B3u-10" value="Input Username&lt;br&gt;dan password" style="shape=parallelogram;perimeter=parallelogramPerimeter;whiteSpace=wrap;html=1;fixedSize=1;" parent="1" vertex="1">
          <mxGeometry x="415" y="907" width="165" height="60" as="geometry" />
        </mxCell>
        <mxCell id="BNmCmgieaK2nJWvq4B3u-12" value="Klik Login" style="rounded=1;whiteSpace=wrap;html=1;" parent="1" vertex="1">
          <mxGeometry x="437.5" y="1000" width="120" height="60" as="geometry" />
        </mxCell>
        <mxCell id="BNmCmgieaK2nJWvq4B3u-13" value="" style="endArrow=classic;html=1;rounded=0;exitX=0.5;exitY=1;exitDx=0;exitDy=0;entryX=0.5;entryY=0;entryDx=0;entryDy=0;" parent="1" source="BNmCmgieaK2nJWvq4B3u-10" target="BNmCmgieaK2nJWvq4B3u-12" edge="1">
          <mxGeometry width="50" height="50" relative="1" as="geometry">
            <mxPoint x="632.5" y="950" as="sourcePoint" />
            <mxPoint x="682.5" y="900" as="targetPoint" />
          </mxGeometry>
        </mxCell>
        <mxCell id="BNmCmgieaK2nJWvq4B3u-14" value="Validasi data&lt;br&gt;ke database" style="shape=parallelogram;perimeter=parallelogramPerimeter;whiteSpace=wrap;html=1;fixedSize=1;" parent="1" vertex="1">
          <mxGeometry x="430" y="1090" width="135" height="60" as="geometry" />
        </mxCell>
        <mxCell id="BNmCmgieaK2nJWvq4B3u-15" value="" style="endArrow=classic;html=1;rounded=0;exitX=0.5;exitY=1;exitDx=0;exitDy=0;entryX=0.5;entryY=0;entryDx=0;entryDy=0;" parent="1" source="BNmCmgieaK2nJWvq4B3u-12" target="BNmCmgieaK2nJWvq4B3u-14" edge="1">
          <mxGeometry width="50" height="50" relative="1" as="geometry">
            <mxPoint x="632.5" y="940" as="sourcePoint" />
            <mxPoint x="682.5" y="890" as="targetPoint" />
          </mxGeometry>
        </mxCell>
        <mxCell id="BNmCmgieaK2nJWvq4B3u-16" value="Data&lt;br&gt;sesuai ?" style="rhombus;whiteSpace=wrap;html=1;" parent="1" vertex="1">
          <mxGeometry x="457.5" y="1170" width="80" height="80" as="geometry" />
        </mxCell>
        <mxCell id="BNmCmgieaK2nJWvq4B3u-17" value="" style="endArrow=classic;html=1;rounded=0;exitX=0.5;exitY=1;exitDx=0;exitDy=0;entryX=0.5;entryY=0;entryDx=0;entryDy=0;" parent="1" source="BNmCmgieaK2nJWvq4B3u-14" target="BNmCmgieaK2nJWvq4B3u-16" edge="1">
          <mxGeometry width="50" height="50" relative="1" as="geometry">
            <mxPoint x="632.5" y="1150" as="sourcePoint" />
            <mxPoint x="682.5" y="1100" as="targetPoint" />
          </mxGeometry>
        </mxCell>
        <mxCell id="BNmCmgieaK2nJWvq4B3u-18" value="" style="endArrow=classic;html=1;rounded=0;exitX=1;exitY=0.5;exitDx=0;exitDy=0;entryX=1;entryY=0.5;entryDx=0;entryDy=0;" parent="1" source="BNmCmgieaK2nJWvq4B3u-16" target="BNmCmgieaK2nJWvq4B3u-10" edge="1">
          <mxGeometry width="50" height="50" relative="1" as="geometry">
            <mxPoint x="632.5" y="1150" as="sourcePoint" />
            <mxPoint x="682.5" y="1100" as="targetPoint" />
            <Array as="points">
              <mxPoint x="602.5" y="1210" />
              <mxPoint x="602.5" y="937" />
            </Array>
          </mxGeometry>
        </mxCell>
        <mxCell id="BNmCmgieaK2nJWvq4B3u-20" value="Validasi username&lt;br&gt;dan Level" style="rounded=1;whiteSpace=wrap;html=1;" parent="1" vertex="1">
          <mxGeometry x="437.5" y="1269.9999999999998" width="120" height="60" as="geometry" />
        </mxCell>
        <mxCell id="BNmCmgieaK2nJWvq4B3u-21" value="" style="endArrow=classic;html=1;rounded=0;exitX=0.5;exitY=1;exitDx=0;exitDy=0;entryX=0.5;entryY=0;entryDx=0;entryDy=0;" parent="1" source="BNmCmgieaK2nJWvq4B3u-16" target="BNmCmgieaK2nJWvq4B3u-20" edge="1">
          <mxGeometry width="50" height="50" relative="1" as="geometry">
            <mxPoint x="632.5" y="1140" as="sourcePoint" />
            <mxPoint x="682.5" y="1090" as="targetPoint" />
          </mxGeometry>
        </mxCell>
        <mxCell id="BNmCmgieaK2nJWvq4B3u-22" value="User masuk&lt;br&gt;ke halaman Register" style="rounded=1;whiteSpace=wrap;html=1;" parent="1" vertex="1">
          <mxGeometry x="812.5" y="815" width="120" height="60" as="geometry" />
        </mxCell>
        <mxCell id="BNmCmgieaK2nJWvq4B3u-23" value="" style="endArrow=classic;html=1;rounded=0;exitX=1;exitY=0.5;exitDx=0;exitDy=0;entryX=0;entryY=0.5;entryDx=0;entryDy=0;" parent="1" source="BNmCmgieaK2nJWvq4B3u-6" target="BNmCmgieaK2nJWvq4B3u-22" edge="1">
          <mxGeometry width="50" height="50" relative="1" as="geometry">
            <mxPoint x="842.5" y="930" as="sourcePoint" />
            <mxPoint x="892.5" y="880" as="targetPoint" />
          </mxGeometry>
        </mxCell>
        <mxCell id="BNmCmgieaK2nJWvq4B3u-24" value="If&lt;br&gt;Admin" style="rhombus;whiteSpace=wrap;html=1;" parent="1" vertex="1">
          <mxGeometry x="457.5" y="1350" width="80" height="70" as="geometry" />
        </mxCell>
        <mxCell id="BNmCmgieaK2nJWvq4B3u-25" value="if&lt;br&gt;Petugas" style="rhombus;whiteSpace=wrap;html=1;" parent="1" vertex="1">
          <mxGeometry x="460" y="1540" width="75" height="70" as="geometry" />
        </mxCell>
        <mxCell id="BNmCmgieaK2nJWvq4B3u-26" value="if&lt;br&gt;peminjam" style="rhombus;whiteSpace=wrap;html=1;" parent="1" vertex="1">
          <mxGeometry x="455" y="1440" width="85" height="80" as="geometry" />
        </mxCell>
        <mxCell id="BNmCmgieaK2nJWvq4B3u-27" value="Masuk ke halaman&lt;br&gt;Admin" style="rounded=1;whiteSpace=wrap;html=1;" parent="1" vertex="1">
          <mxGeometry x="580" y="1350" width="145" height="70" as="geometry" />
        </mxCell>
        <mxCell id="BNmCmgieaK2nJWvq4B3u-28" value="" style="endArrow=classic;html=1;rounded=0;exitX=0.5;exitY=1;exitDx=0;exitDy=0;entryX=0.5;entryY=0;entryDx=0;entryDy=0;" parent="1" source="BNmCmgieaK2nJWvq4B3u-20" target="BNmCmgieaK2nJWvq4B3u-24" edge="1">
          <mxGeometry width="50" height="50" relative="1" as="geometry">
            <mxPoint x="632.5" y="1530" as="sourcePoint" />
            <mxPoint x="470" y="1350" as="targetPoint" />
          </mxGeometry>
        </mxCell>
        <mxCell id="BNmCmgieaK2nJWvq4B3u-29" value="" style="endArrow=classic;html=1;rounded=0;exitX=0.5;exitY=1;exitDx=0;exitDy=0;entryX=0.5;entryY=0;entryDx=0;entryDy=0;" parent="1" source="BNmCmgieaK2nJWvq4B3u-24" target="BNmCmgieaK2nJWvq4B3u-26" edge="1">
          <mxGeometry width="50" height="50" relative="1" as="geometry">
            <mxPoint x="632.5" y="1530" as="sourcePoint" />
            <mxPoint x="682.5" y="1480" as="targetPoint" />
          </mxGeometry>
        </mxCell>
        <mxCell id="BNmCmgieaK2nJWvq4B3u-35" value="Selesai" style="ellipse;whiteSpace=wrap;html=1;" parent="1" vertex="1">
          <mxGeometry x="600" y="1656" width="105" height="60" as="geometry" />
        </mxCell>
        <mxCell id="BNmCmgieaK2nJWvq4B3u-37" value="Sudah punya&lt;br&gt;Akun ?" style="rhombus;whiteSpace=wrap;html=1;" parent="1" vertex="1">
          <mxGeometry x="807.5" y="908" width="130" height="83" as="geometry" />
        </mxCell>
        <mxCell id="BNmCmgieaK2nJWvq4B3u-38" value="" style="endArrow=classic;html=1;rounded=0;exitX=0.5;exitY=1;exitDx=0;exitDy=0;entryX=0.503;entryY=-0.007;entryDx=0;entryDy=0;entryPerimeter=0;" parent="1" source="BNmCmgieaK2nJWvq4B3u-22" target="BNmCmgieaK2nJWvq4B3u-37" edge="1">
          <mxGeometry width="50" height="50" relative="1" as="geometry">
            <mxPoint x="892.5" y="1010" as="sourcePoint" />
            <mxPoint x="942.5" y="960" as="targetPoint" />
          </mxGeometry>
        </mxCell>
        <mxCell id="BNmCmgieaK2nJWvq4B3u-39" value="" style="endArrow=classic;html=1;rounded=0;entryX=1;entryY=0.5;entryDx=0;entryDy=0;exitX=1;exitY=0.5;exitDx=0;exitDy=0;" parent="1" source="BNmCmgieaK2nJWvq4B3u-37" target="BNmCmgieaK2nJWvq4B3u-4" edge="1">
          <mxGeometry width="50" height="50" relative="1" as="geometry">
            <mxPoint x="942.5" y="950" as="sourcePoint" />
            <mxPoint x="822.5" y="920" as="targetPoint" />
            <Array as="points">
              <mxPoint x="992.5" y="950" />
              <mxPoint x="992.5" y="760" />
            </Array>
          </mxGeometry>
        </mxCell>
        <mxCell id="BNmCmgieaK2nJWvq4B3u-41" value="Input data yang&lt;br&gt;diperlukan" style="shape=parallelogram;perimeter=parallelogramPerimeter;whiteSpace=wrap;html=1;fixedSize=1;" parent="1" vertex="1">
          <mxGeometry x="810" y="1020" width="125" height="60" as="geometry" />
        </mxCell>
        <mxCell id="BNmCmgieaK2nJWvq4B3u-42" value="" style="endArrow=classic;html=1;rounded=0;exitX=0.5;exitY=1;exitDx=0;exitDy=0;entryX=0.5;entryY=0;entryDx=0;entryDy=0;" parent="1" source="BNmCmgieaK2nJWvq4B3u-37" target="BNmCmgieaK2nJWvq4B3u-41" edge="1">
          <mxGeometry width="50" height="50" relative="1" as="geometry">
            <mxPoint x="822.5" y="1000" as="sourcePoint" />
            <mxPoint x="872.5" y="950" as="targetPoint" />
          </mxGeometry>
        </mxCell>
        <mxCell id="BNmCmgieaK2nJWvq4B3u-43" value="Klik Submit" style="rounded=1;whiteSpace=wrap;html=1;" parent="1" vertex="1">
          <mxGeometry x="812.5" y="1100" width="120" height="60" as="geometry" />
        </mxCell>
        <mxCell id="BNmCmgieaK2nJWvq4B3u-44" value="" style="endArrow=classic;html=1;rounded=0;exitX=0.5;exitY=1;exitDx=0;exitDy=0;entryX=0.5;entryY=0;entryDx=0;entryDy=0;" parent="1" source="BNmCmgieaK2nJWvq4B3u-41" target="BNmCmgieaK2nJWvq4B3u-43" edge="1">
          <mxGeometry width="50" height="50" relative="1" as="geometry">
            <mxPoint x="982.5" y="1250" as="sourcePoint" />
            <mxPoint x="1032.5" y="1200" as="targetPoint" />
          </mxGeometry>
        </mxCell>
        <mxCell id="BNmCmgieaK2nJWvq4B3u-45" value="Munculkan&lt;br&gt;&quot;Data terkirim&quot;" style="shape=parallelogram;perimeter=parallelogramPerimeter;whiteSpace=wrap;html=1;fixedSize=1;" parent="1" vertex="1">
          <mxGeometry x="802.5" y="1190" width="140" height="60" as="geometry" />
        </mxCell>
        <mxCell id="BNmCmgieaK2nJWvq4B3u-46" value="" style="endArrow=classic;html=1;rounded=0;exitX=0.5;exitY=1;exitDx=0;exitDy=0;entryX=0.497;entryY=0.021;entryDx=0;entryDy=0;entryPerimeter=0;" parent="1" source="BNmCmgieaK2nJWvq4B3u-43" target="BNmCmgieaK2nJWvq4B3u-45" edge="1">
          <mxGeometry width="50" height="50" relative="1" as="geometry">
            <mxPoint x="982.5" y="990" as="sourcePoint" />
            <mxPoint x="1032.5" y="940" as="targetPoint" />
          </mxGeometry>
        </mxCell>
        <mxCell id="BNmCmgieaK2nJWvq4B3u-47" value="" style="endArrow=classic;html=1;rounded=0;exitX=1;exitY=0.5;exitDx=0;exitDy=0;" parent="1" source="BNmCmgieaK2nJWvq4B3u-45" edge="1">
          <mxGeometry width="50" height="50" relative="1" as="geometry">
            <mxPoint x="852.5" y="1060" as="sourcePoint" />
            <mxPoint x="992.5" y="950" as="targetPoint" />
            <Array as="points">
              <mxPoint x="992.5" y="1220" />
            </Array>
          </mxGeometry>
        </mxCell>
        <mxCell id="BNmCmgieaK2nJWvq4B3u-49" value="&lt;font style=&quot;font-size: 22px;&quot;&gt;&lt;b&gt;Flowchart Login - Register&lt;/b&gt;&lt;/font&gt;" style="text;html=1;strokeColor=none;fillColor=none;align=center;verticalAlign=middle;whiteSpace=wrap;rounded=0;" parent="1" vertex="1">
          <mxGeometry x="267.5" y="600" width="460" height="30" as="geometry" />
        </mxCell>
        <mxCell id="BNmCmgieaK2nJWvq4B3u-50" value="&lt;h1&gt;Algoritma Admin&lt;/h1&gt;&lt;p&gt;1. Admin masuk ke form login, jika admin belum mempunyai akun Klik &quot;Register&quot;&lt;/p&gt;&lt;p&gt;2. Admin menginput username dan password nya&lt;/p&gt;&lt;p&gt;3. Admin akan diarahkan ke form tampilan Admin&lt;/p&gt;&lt;p&gt;4. Admin bisa melakukan pendataan yaitu data buku, data user, data peminjaman, ulasan dan kategori buku&lt;/p&gt;&lt;p&gt;5. Admin bisa membuat Laporan&lt;/p&gt;&lt;p&gt;6. Admin bisa Logout dan kembali ke form Login&lt;/p&gt;" style="text;html=1;strokeColor=none;fillColor=none;spacing=5;spacingTop=-20;whiteSpace=wrap;overflow=hidden;rounded=0;" parent="1" vertex="1">
          <mxGeometry x="1290" y="210" width="460" height="340" as="geometry" />
        </mxCell>
        <mxCell id="BNmCmgieaK2nJWvq4B3u-51" value="&lt;h1&gt;Algoritma Petugas&lt;/h1&gt;&lt;p&gt;1. Petugas masuk ke form login&lt;/p&gt;&lt;p&gt;2. Petugas menginput username dan password nya&lt;/p&gt;&lt;p&gt;3. Petugas akan diarahkan ke form tampilan Petugas&lt;/p&gt;&lt;p&gt;4. Petugas bisa melakukan pendataan yaitu data buku, data user, data peminjaman, ulasan dan kategori buku&lt;/p&gt;&lt;p&gt;5. Petugas bisa membuat Laporan&lt;/p&gt;&lt;p&gt;6. Petugas bisa Logout dan kembali ke form Login&lt;/p&gt;" style="text;html=1;strokeColor=none;fillColor=none;spacing=5;spacingTop=-20;whiteSpace=wrap;overflow=hidden;rounded=0;" parent="1" vertex="1">
          <mxGeometry x="1740" y="210" width="460" height="340" as="geometry" />
        </mxCell>
        <mxCell id="BNmCmgieaK2nJWvq4B3u-52" value="&lt;h1&gt;Algoritma Peminjam&lt;/h1&gt;&lt;p&gt;1. Peminjam masuk ke form login, jika Peminjam belum mempunyai akun Klik &quot;Register&quot;&lt;/p&gt;&lt;p&gt;2. Peminjam menginput username dan password nya&lt;/p&gt;&lt;p&gt;3. Peminjam akan diarahkan ke form tampilan Peminjam&lt;/p&gt;&lt;p&gt;4. Peminjam bisa input data meminjam buku&amp;nbsp;&lt;/p&gt;&lt;p&gt;5. Peminjam bisa Logout dan kembali ke form Login&lt;/p&gt;" style="text;html=1;strokeColor=none;fillColor=none;spacing=5;spacingTop=-20;whiteSpace=wrap;overflow=hidden;rounded=0;" parent="1" vertex="1">
          <mxGeometry x="2210" y="210" width="460" height="340" as="geometry" />
        </mxCell>
        <mxCell id="BNmCmgieaK2nJWvq4B3u-53" value="Mulai" style="ellipse;whiteSpace=wrap;html=1;" parent="1" vertex="1">
          <mxGeometry x="1400" y="1241" width="80" height="50" as="geometry" />
        </mxCell>
        <mxCell id="BNmCmgieaK2nJWvq4B3u-54" value="&lt;span style=&quot;font-size: 22px;&quot;&gt;&lt;b&gt;Flowchart Admin&lt;/b&gt;&lt;/span&gt;" style="text;html=1;strokeColor=none;fillColor=none;align=center;verticalAlign=middle;whiteSpace=wrap;rounded=0;" parent="1" vertex="1">
          <mxGeometry x="1330" y="480" width="230" height="33" as="geometry" />
        </mxCell>
        <mxCell id="BNmCmgieaK2nJWvq4B3u-57" value="Admin Login" style="shape=parallelogram;perimeter=parallelogramPerimeter;whiteSpace=wrap;html=1;fixedSize=1;" parent="1" vertex="1">
          <mxGeometry x="1370" y="1321" width="140" height="60" as="geometry" />
        </mxCell>
        <mxCell id="BNmCmgieaK2nJWvq4B3u-58" value="" style="endArrow=classic;html=1;rounded=0;exitX=0.5;exitY=1;exitDx=0;exitDy=0;entryX=0.5;entryY=0;entryDx=0;entryDy=0;" parent="1" source="BNmCmgieaK2nJWvq4B3u-53" target="BNmCmgieaK2nJWvq4B3u-57" edge="1">
          <mxGeometry width="50" height="50" relative="1" as="geometry">
            <mxPoint x="1490" y="1331" as="sourcePoint" />
            <mxPoint x="1540" y="1281" as="targetPoint" />
          </mxGeometry>
        </mxCell>
        <mxCell id="BNmCmgieaK2nJWvq4B3u-60" value="Login" style="ellipse;whiteSpace=wrap;html=1;aspect=fixed;" parent="1" vertex="1">
          <mxGeometry x="1280" y="1321" width="60" height="60" as="geometry" />
        </mxCell>
        <mxCell id="BNmCmgieaK2nJWvq4B3u-61" value="" style="endArrow=classic;html=1;rounded=0;exitX=0;exitY=0.5;exitDx=0;exitDy=0;entryX=1;entryY=0.5;entryDx=0;entryDy=0;" parent="1" source="BNmCmgieaK2nJWvq4B3u-57" target="BNmCmgieaK2nJWvq4B3u-60" edge="1">
          <mxGeometry width="50" height="50" relative="1" as="geometry">
            <mxPoint x="1250" y="1331" as="sourcePoint" />
            <mxPoint x="1300" y="1281" as="targetPoint" />
          </mxGeometry>
        </mxCell>
        <mxCell id="BNmCmgieaK2nJWvq4B3u-62" value="Admin Melakukan pendataan" style="rounded=0;whiteSpace=wrap;html=1;" parent="1" vertex="1">
          <mxGeometry x="1380" y="1411" width="120" height="60" as="geometry" />
        </mxCell>
        <mxCell id="BNmCmgieaK2nJWvq4B3u-63" value="" style="endArrow=classic;html=1;rounded=0;exitX=0.5;exitY=1;exitDx=0;exitDy=0;entryX=0.5;entryY=0;entryDx=0;entryDy=0;" parent="1" source="BNmCmgieaK2nJWvq4B3u-57" target="BNmCmgieaK2nJWvq4B3u-62" edge="1">
          <mxGeometry width="50" height="50" relative="1" as="geometry">
            <mxPoint x="1490" y="1321" as="sourcePoint" />
            <mxPoint x="1540" y="1271" as="targetPoint" />
          </mxGeometry>
        </mxCell>
        <mxCell id="BNmCmgieaK2nJWvq4B3u-64" value="Admin bisa&lt;br&gt;membuat laporan" style="shape=parallelogram;perimeter=parallelogramPerimeter;whiteSpace=wrap;html=1;fixedSize=1;" parent="1" vertex="1">
          <mxGeometry x="1365" y="1501" width="150" height="60" as="geometry" />
        </mxCell>
        <mxCell id="BNmCmgieaK2nJWvq4B3u-65" value="" style="endArrow=classic;html=1;rounded=0;exitX=0.5;exitY=1;exitDx=0;exitDy=0;entryX=0.5;entryY=0;entryDx=0;entryDy=0;" parent="1" source="BNmCmgieaK2nJWvq4B3u-62" target="BNmCmgieaK2nJWvq4B3u-64" edge="1">
          <mxGeometry width="50" height="50" relative="1" as="geometry">
            <mxPoint x="1490" y="1551" as="sourcePoint" />
            <mxPoint x="1540" y="1501" as="targetPoint" />
          </mxGeometry>
        </mxCell>
        <mxCell id="BNmCmgieaK2nJWvq4B3u-67" value="Logout" style="rounded=0;whiteSpace=wrap;html=1;" parent="1" vertex="1">
          <mxGeometry x="1390" y="1591" width="100" height="50" as="geometry" />
        </mxCell>
        <mxCell id="BNmCmgieaK2nJWvq4B3u-68" value="" style="endArrow=classic;html=1;rounded=0;exitX=0.5;exitY=1;exitDx=0;exitDy=0;entryX=0.5;entryY=0;entryDx=0;entryDy=0;" parent="1" source="BNmCmgieaK2nJWvq4B3u-64" target="BNmCmgieaK2nJWvq4B3u-67" edge="1">
          <mxGeometry width="50" height="50" relative="1" as="geometry">
            <mxPoint x="1490" y="1551" as="sourcePoint" />
            <mxPoint x="1540" y="1501" as="targetPoint" />
          </mxGeometry>
        </mxCell>
        <mxCell id="BNmCmgieaK2nJWvq4B3u-69" value="" style="endArrow=classic;html=1;rounded=0;exitX=0;exitY=0.5;exitDx=0;exitDy=0;entryX=0.5;entryY=1;entryDx=0;entryDy=0;" parent="1" source="BNmCmgieaK2nJWvq4B3u-67" target="BNmCmgieaK2nJWvq4B3u-60" edge="1">
          <mxGeometry width="50" height="50" relative="1" as="geometry">
            <mxPoint x="1490" y="1551" as="sourcePoint" />
            <mxPoint x="1540" y="1501" as="targetPoint" />
            <Array as="points">
              <mxPoint x="1310" y="1616" />
            </Array>
          </mxGeometry>
        </mxCell>
        <mxCell id="BNmCmgieaK2nJWvq4B3u-70" value="Selesai" style="ellipse;whiteSpace=wrap;html=1;" parent="1" vertex="1">
          <mxGeometry x="1400" y="1671" width="80" height="50" as="geometry" />
        </mxCell>
        <mxCell id="BNmCmgieaK2nJWvq4B3u-71" value="" style="endArrow=classic;html=1;rounded=0;exitX=0.5;exitY=1;exitDx=0;exitDy=0;entryX=0.5;entryY=0;entryDx=0;entryDy=0;" parent="1" source="BNmCmgieaK2nJWvq4B3u-67" target="BNmCmgieaK2nJWvq4B3u-70" edge="1">
          <mxGeometry width="50" height="50" relative="1" as="geometry">
            <mxPoint x="1490" y="1551" as="sourcePoint" />
            <mxPoint x="1540" y="1501" as="targetPoint" />
          </mxGeometry>
        </mxCell>
        <mxCell id="BNmCmgieaK2nJWvq4B3u-72" value="Mulai" style="ellipse;whiteSpace=wrap;html=1;" parent="1" vertex="1">
          <mxGeometry x="1890" y="1241" width="80" height="50" as="geometry" />
        </mxCell>
        <mxCell id="BNmCmgieaK2nJWvq4B3u-73" value="Petugas Login" style="shape=parallelogram;perimeter=parallelogramPerimeter;whiteSpace=wrap;html=1;fixedSize=1;" parent="1" vertex="1">
          <mxGeometry x="1860" y="1311" width="140" height="60" as="geometry" />
        </mxCell>
        <mxCell id="BNmCmgieaK2nJWvq4B3u-74" value="" style="endArrow=classic;html=1;rounded=0;exitX=0.5;exitY=1;exitDx=0;exitDy=0;entryX=0.5;entryY=0;entryDx=0;entryDy=0;" parent="1" source="BNmCmgieaK2nJWvq4B3u-72" target="BNmCmgieaK2nJWvq4B3u-73" edge="1">
          <mxGeometry width="50" height="50" relative="1" as="geometry">
            <mxPoint x="1980" y="1321" as="sourcePoint" />
            <mxPoint x="2030" y="1271" as="targetPoint" />
          </mxGeometry>
        </mxCell>
        <mxCell id="BNmCmgieaK2nJWvq4B3u-75" value="Login" style="ellipse;whiteSpace=wrap;html=1;aspect=fixed;" parent="1" vertex="1">
          <mxGeometry x="1770" y="1311" width="60" height="60" as="geometry" />
        </mxCell>
        <mxCell id="BNmCmgieaK2nJWvq4B3u-76" value="" style="endArrow=classic;html=1;rounded=0;exitX=0;exitY=0.5;exitDx=0;exitDy=0;entryX=1;entryY=0.5;entryDx=0;entryDy=0;" parent="1" source="BNmCmgieaK2nJWvq4B3u-73" target="BNmCmgieaK2nJWvq4B3u-75" edge="1">
          <mxGeometry width="50" height="50" relative="1" as="geometry">
            <mxPoint x="1740" y="1321" as="sourcePoint" />
            <mxPoint x="1790" y="1271" as="targetPoint" />
          </mxGeometry>
        </mxCell>
        <mxCell id="BNmCmgieaK2nJWvq4B3u-77" value="Petugas Melakukan pendataan" style="rounded=0;whiteSpace=wrap;html=1;" parent="1" vertex="1">
          <mxGeometry x="1870" y="1401" width="120" height="60" as="geometry" />
        </mxCell>
        <mxCell id="BNmCmgieaK2nJWvq4B3u-78" value="" style="endArrow=classic;html=1;rounded=0;exitX=0.5;exitY=1;exitDx=0;exitDy=0;entryX=0.5;entryY=0;entryDx=0;entryDy=0;" parent="1" source="BNmCmgieaK2nJWvq4B3u-73" target="BNmCmgieaK2nJWvq4B3u-77" edge="1">
          <mxGeometry width="50" height="50" relative="1" as="geometry">
            <mxPoint x="1980" y="1311" as="sourcePoint" />
            <mxPoint x="2030" y="1261" as="targetPoint" />
          </mxGeometry>
        </mxCell>
        <mxCell id="BNmCmgieaK2nJWvq4B3u-79" value="Petugas bisa&lt;br&gt;membuat laporan" style="shape=parallelogram;perimeter=parallelogramPerimeter;whiteSpace=wrap;html=1;fixedSize=1;" parent="1" vertex="1">
          <mxGeometry x="1855" y="1491" width="150" height="60" as="geometry" />
        </mxCell>
        <mxCell id="BNmCmgieaK2nJWvq4B3u-80" value="" style="endArrow=classic;html=1;rounded=0;exitX=0.5;exitY=1;exitDx=0;exitDy=0;entryX=0.5;entryY=0;entryDx=0;entryDy=0;" parent="1" source="BNmCmgieaK2nJWvq4B3u-77" target="BNmCmgieaK2nJWvq4B3u-79" edge="1">
          <mxGeometry width="50" height="50" relative="1" as="geometry">
            <mxPoint x="1980" y="1541" as="sourcePoint" />
            <mxPoint x="2030" y="1491" as="targetPoint" />
          </mxGeometry>
        </mxCell>
        <mxCell id="BNmCmgieaK2nJWvq4B3u-81" value="Logout" style="rounded=0;whiteSpace=wrap;html=1;" parent="1" vertex="1">
          <mxGeometry x="1880" y="1581" width="100" height="50" as="geometry" />
        </mxCell>
        <mxCell id="BNmCmgieaK2nJWvq4B3u-82" value="" style="endArrow=classic;html=1;rounded=0;exitX=0.5;exitY=1;exitDx=0;exitDy=0;entryX=0.5;entryY=0;entryDx=0;entryDy=0;" parent="1" source="BNmCmgieaK2nJWvq4B3u-79" target="BNmCmgieaK2nJWvq4B3u-81" edge="1">
          <mxGeometry width="50" height="50" relative="1" as="geometry">
            <mxPoint x="1980" y="1541" as="sourcePoint" />
            <mxPoint x="2030" y="1491" as="targetPoint" />
          </mxGeometry>
        </mxCell>
        <mxCell id="BNmCmgieaK2nJWvq4B3u-83" value="" style="endArrow=classic;html=1;rounded=0;exitX=0;exitY=0.5;exitDx=0;exitDy=0;entryX=0.5;entryY=1;entryDx=0;entryDy=0;" parent="1" source="BNmCmgieaK2nJWvq4B3u-81" target="BNmCmgieaK2nJWvq4B3u-75" edge="1">
          <mxGeometry width="50" height="50" relative="1" as="geometry">
            <mxPoint x="1980" y="1541" as="sourcePoint" />
            <mxPoint x="2030" y="1491" as="targetPoint" />
            <Array as="points">
              <mxPoint x="1800" y="1606" />
            </Array>
          </mxGeometry>
        </mxCell>
        <mxCell id="BNmCmgieaK2nJWvq4B3u-84" value="Selesai" style="ellipse;whiteSpace=wrap;html=1;" parent="1" vertex="1">
          <mxGeometry x="1890" y="1661" width="80" height="50" as="geometry" />
        </mxCell>
        <mxCell id="BNmCmgieaK2nJWvq4B3u-85" value="" style="endArrow=classic;html=1;rounded=0;exitX=0.5;exitY=1;exitDx=0;exitDy=0;entryX=0.5;entryY=0;entryDx=0;entryDy=0;" parent="1" source="BNmCmgieaK2nJWvq4B3u-81" target="BNmCmgieaK2nJWvq4B3u-84" edge="1">
          <mxGeometry width="50" height="50" relative="1" as="geometry">
            <mxPoint x="1980" y="1541" as="sourcePoint" />
            <mxPoint x="2030" y="1491" as="targetPoint" />
          </mxGeometry>
        </mxCell>
        <mxCell id="BNmCmgieaK2nJWvq4B3u-86" value="&lt;span style=&quot;font-size: 22px;&quot;&gt;&lt;b&gt;Flowchart Petugas&lt;/b&gt;&lt;/span&gt;" style="text;html=1;strokeColor=none;fillColor=none;align=center;verticalAlign=middle;whiteSpace=wrap;rounded=0;" parent="1" vertex="1">
          <mxGeometry x="1770" y="480" width="230" height="33" as="geometry" />
        </mxCell>
        <mxCell id="BNmCmgieaK2nJWvq4B3u-87" value="Mulai" style="ellipse;whiteSpace=wrap;html=1;" parent="1" vertex="1">
          <mxGeometry x="2320" y="560" width="80" height="50" as="geometry" />
        </mxCell>
        <mxCell id="BNmCmgieaK2nJWvq4B3u-88" value="PeminjamLogin" style="shape=parallelogram;perimeter=parallelogramPerimeter;whiteSpace=wrap;html=1;fixedSize=1;" parent="1" vertex="1">
          <mxGeometry x="2290" y="630" width="140" height="60" as="geometry" />
        </mxCell>
        <mxCell id="BNmCmgieaK2nJWvq4B3u-89" value="" style="endArrow=classic;html=1;rounded=0;exitX=0.5;exitY=1;exitDx=0;exitDy=0;entryX=0.5;entryY=0;entryDx=0;entryDy=0;" parent="1" source="BNmCmgieaK2nJWvq4B3u-87" target="BNmCmgieaK2nJWvq4B3u-88" edge="1">
          <mxGeometry width="50" height="50" relative="1" as="geometry">
            <mxPoint x="2410" y="640" as="sourcePoint" />
            <mxPoint x="2460" y="590" as="targetPoint" />
          </mxGeometry>
        </mxCell>
        <mxCell id="BNmCmgieaK2nJWvq4B3u-90" value="Login" style="ellipse;whiteSpace=wrap;html=1;aspect=fixed;" parent="1" vertex="1">
          <mxGeometry x="2200" y="630" width="60" height="60" as="geometry" />
        </mxCell>
        <mxCell id="BNmCmgieaK2nJWvq4B3u-91" value="" style="endArrow=classic;html=1;rounded=0;exitX=0;exitY=0.5;exitDx=0;exitDy=0;entryX=1;entryY=0.5;entryDx=0;entryDy=0;" parent="1" source="BNmCmgieaK2nJWvq4B3u-88" target="BNmCmgieaK2nJWvq4B3u-90" edge="1">
          <mxGeometry width="50" height="50" relative="1" as="geometry">
            <mxPoint x="2170" y="640" as="sourcePoint" />
            <mxPoint x="2220" y="590" as="targetPoint" />
          </mxGeometry>
        </mxCell>
        <mxCell id="BNmCmgieaK2nJWvq4B3u-92" value="Peminjam melihat&lt;br&gt;data buku yang ingin di pinjam" style="rounded=0;whiteSpace=wrap;html=1;" parent="1" vertex="1">
          <mxGeometry x="2260" y="710" width="200" height="80" as="geometry" />
        </mxCell>
        <mxCell id="BNmCmgieaK2nJWvq4B3u-93" value="" style="endArrow=classic;html=1;rounded=0;exitX=0.5;exitY=1;exitDx=0;exitDy=0;entryX=0.5;entryY=0;entryDx=0;entryDy=0;" parent="1" source="BNmCmgieaK2nJWvq4B3u-88" target="BNmCmgieaK2nJWvq4B3u-92" edge="1">
          <mxGeometry width="50" height="50" relative="1" as="geometry">
            <mxPoint x="2410" y="630" as="sourcePoint" />
            <mxPoint x="2460" y="580" as="targetPoint" />
          </mxGeometry>
        </mxCell>
        <mxCell id="BNmCmgieaK2nJWvq4B3u-94" value="Peminjam meminjam&lt;br&gt;buku" style="shape=parallelogram;perimeter=parallelogramPerimeter;whiteSpace=wrap;html=1;fixedSize=1;" parent="1" vertex="1">
          <mxGeometry x="2285" y="820" width="150" height="60" as="geometry" />
        </mxCell>
        <mxCell id="BNmCmgieaK2nJWvq4B3u-95" value="" style="endArrow=classic;html=1;rounded=0;exitX=0.5;exitY=1;exitDx=0;exitDy=0;entryX=0.5;entryY=0;entryDx=0;entryDy=0;" parent="1" source="BNmCmgieaK2nJWvq4B3u-92" target="BNmCmgieaK2nJWvq4B3u-94" edge="1">
          <mxGeometry width="50" height="50" relative="1" as="geometry">
            <mxPoint x="2410" y="860" as="sourcePoint" />
            <mxPoint x="2460" y="810" as="targetPoint" />
          </mxGeometry>
        </mxCell>
        <mxCell id="BNmCmgieaK2nJWvq4B3u-96" value="Logout" style="rounded=0;whiteSpace=wrap;html=1;" parent="1" vertex="1">
          <mxGeometry x="2310" y="900" width="100" height="50" as="geometry" />
        </mxCell>
        <mxCell id="BNmCmgieaK2nJWvq4B3u-97" value="" style="endArrow=classic;html=1;rounded=0;exitX=0.5;exitY=1;exitDx=0;exitDy=0;entryX=0.5;entryY=0;entryDx=0;entryDy=0;" parent="1" source="BNmCmgieaK2nJWvq4B3u-94" target="BNmCmgieaK2nJWvq4B3u-96" edge="1">
          <mxGeometry width="50" height="50" relative="1" as="geometry">
            <mxPoint x="2410" y="860" as="sourcePoint" />
            <mxPoint x="2460" y="810" as="targetPoint" />
          </mxGeometry>
        </mxCell>
        <mxCell id="BNmCmgieaK2nJWvq4B3u-98" value="" style="endArrow=classic;html=1;rounded=0;exitX=0;exitY=0.5;exitDx=0;exitDy=0;entryX=0.5;entryY=1;entryDx=0;entryDy=0;" parent="1" source="BNmCmgieaK2nJWvq4B3u-96" target="BNmCmgieaK2nJWvq4B3u-90" edge="1">
          <mxGeometry width="50" height="50" relative="1" as="geometry">
            <mxPoint x="2410" y="860" as="sourcePoint" />
            <mxPoint x="2460" y="810" as="targetPoint" />
            <Array as="points">
              <mxPoint x="2230" y="925" />
            </Array>
          </mxGeometry>
        </mxCell>
        <mxCell id="BNmCmgieaK2nJWvq4B3u-99" value="Selesai" style="ellipse;whiteSpace=wrap;html=1;" parent="1" vertex="1">
          <mxGeometry x="2320" y="980" width="80" height="50" as="geometry" />
        </mxCell>
        <mxCell id="BNmCmgieaK2nJWvq4B3u-100" value="" style="endArrow=classic;html=1;rounded=0;exitX=0.5;exitY=1;exitDx=0;exitDy=0;entryX=0.5;entryY=0;entryDx=0;entryDy=0;" parent="1" source="BNmCmgieaK2nJWvq4B3u-96" target="BNmCmgieaK2nJWvq4B3u-99" edge="1">
          <mxGeometry width="50" height="50" relative="1" as="geometry">
            <mxPoint x="2410" y="860" as="sourcePoint" />
            <mxPoint x="2460" y="810" as="targetPoint" />
          </mxGeometry>
        </mxCell>
        <mxCell id="BNmCmgieaK2nJWvq4B3u-101" value="&lt;span style=&quot;font-size: 22px;&quot;&gt;&lt;b&gt;Flowchart Peminjam&lt;/b&gt;&lt;/span&gt;" style="text;html=1;strokeColor=none;fillColor=none;align=center;verticalAlign=middle;whiteSpace=wrap;rounded=0;" parent="1" vertex="1">
          <mxGeometry x="2230" y="470" width="230" height="33" as="geometry" />
        </mxCell>
        <mxCell id="BNmCmgieaK2nJWvq4B3u-102" value="Mulai" style="ellipse;whiteSpace=wrap;html=1;" parent="1" vertex="1">
          <mxGeometry x="1400" y="550" width="80" height="50" as="geometry" />
        </mxCell>
        <mxCell id="BNmCmgieaK2nJWvq4B3u-103" value="Admin Login" style="shape=parallelogram;perimeter=parallelogramPerimeter;whiteSpace=wrap;html=1;fixedSize=1;" parent="1" vertex="1">
          <mxGeometry x="1370" y="630" width="140" height="60" as="geometry" />
        </mxCell>
        <mxCell id="BNmCmgieaK2nJWvq4B3u-104" value="" style="endArrow=classic;html=1;rounded=0;exitX=0.5;exitY=1;exitDx=0;exitDy=0;entryX=0.5;entryY=0;entryDx=0;entryDy=0;" parent="1" source="BNmCmgieaK2nJWvq4B3u-102" target="BNmCmgieaK2nJWvq4B3u-103" edge="1">
          <mxGeometry width="50" height="50" relative="1" as="geometry">
            <mxPoint x="1490" y="640" as="sourcePoint" />
            <mxPoint x="1540" y="590" as="targetPoint" />
          </mxGeometry>
        </mxCell>
        <mxCell id="BNmCmgieaK2nJWvq4B3u-105" value="Login" style="ellipse;whiteSpace=wrap;html=1;aspect=fixed;" parent="1" vertex="1">
          <mxGeometry x="1280" y="630" width="60" height="60" as="geometry" />
        </mxCell>
        <mxCell id="BNmCmgieaK2nJWvq4B3u-106" value="" style="endArrow=classic;html=1;rounded=0;exitX=0;exitY=0.5;exitDx=0;exitDy=0;entryX=1;entryY=0.5;entryDx=0;entryDy=0;" parent="1" source="BNmCmgieaK2nJWvq4B3u-103" target="BNmCmgieaK2nJWvq4B3u-105" edge="1">
          <mxGeometry width="50" height="50" relative="1" as="geometry">
            <mxPoint x="1250" y="640" as="sourcePoint" />
            <mxPoint x="1300" y="590" as="targetPoint" />
          </mxGeometry>
        </mxCell>
        <mxCell id="BNmCmgieaK2nJWvq4B3u-107" value="Admin mendata&lt;br&gt;Data user" style="rounded=0;whiteSpace=wrap;html=1;" parent="1" vertex="1">
          <mxGeometry x="1380" y="720" width="120" height="60" as="geometry" />
        </mxCell>
        <mxCell id="BNmCmgieaK2nJWvq4B3u-108" value="" style="endArrow=classic;html=1;rounded=0;exitX=0.5;exitY=1;exitDx=0;exitDy=0;entryX=0.5;entryY=0;entryDx=0;entryDy=0;" parent="1" source="BNmCmgieaK2nJWvq4B3u-103" target="BNmCmgieaK2nJWvq4B3u-107" edge="1">
          <mxGeometry width="50" height="50" relative="1" as="geometry">
            <mxPoint x="1490" y="630" as="sourcePoint" />
            <mxPoint x="1540" y="580" as="targetPoint" />
          </mxGeometry>
        </mxCell>
        <mxCell id="BNmCmgieaK2nJWvq4B3u-109" value="Admin bisa&lt;br&gt;membuat laporan" style="shape=parallelogram;perimeter=parallelogramPerimeter;whiteSpace=wrap;html=1;fixedSize=1;" parent="1" vertex="1">
          <mxGeometry x="1365" y="970" width="150" height="60" as="geometry" />
        </mxCell>
        <mxCell id="BNmCmgieaK2nJWvq4B3u-111" value="Logout" style="rounded=0;whiteSpace=wrap;html=1;" parent="1" vertex="1">
          <mxGeometry x="1390" y="1070" width="100" height="50" as="geometry" />
        </mxCell>
        <mxCell id="BNmCmgieaK2nJWvq4B3u-112" value="" style="endArrow=classic;html=1;rounded=0;exitX=0.5;exitY=1;exitDx=0;exitDy=0;entryX=0.5;entryY=0;entryDx=0;entryDy=0;" parent="1" source="BNmCmgieaK2nJWvq4B3u-109" target="BNmCmgieaK2nJWvq4B3u-111" edge="1">
          <mxGeometry width="50" height="50" relative="1" as="geometry">
            <mxPoint x="1490" y="1030" as="sourcePoint" />
            <mxPoint x="1540" y="980" as="targetPoint" />
          </mxGeometry>
        </mxCell>
        <mxCell id="BNmCmgieaK2nJWvq4B3u-113" value="" style="endArrow=classic;html=1;rounded=0;exitX=0;exitY=0.5;exitDx=0;exitDy=0;entryX=0.5;entryY=1;entryDx=0;entryDy=0;" parent="1" source="BNmCmgieaK2nJWvq4B3u-111" target="BNmCmgieaK2nJWvq4B3u-105" edge="1">
          <mxGeometry width="50" height="50" relative="1" as="geometry">
            <mxPoint x="1490" y="860" as="sourcePoint" />
            <mxPoint x="1540" y="810" as="targetPoint" />
            <Array as="points">
              <mxPoint x="1310" y="1095" />
            </Array>
          </mxGeometry>
        </mxCell>
        <mxCell id="BNmCmgieaK2nJWvq4B3u-114" value="Selesai" style="ellipse;whiteSpace=wrap;html=1;" parent="1" vertex="1">
          <mxGeometry x="1400" y="1150" width="80" height="50" as="geometry" />
        </mxCell>
        <mxCell id="BNmCmgieaK2nJWvq4B3u-115" value="" style="endArrow=classic;html=1;rounded=0;exitX=0.5;exitY=1;exitDx=0;exitDy=0;entryX=0.5;entryY=0;entryDx=0;entryDy=0;" parent="1" source="BNmCmgieaK2nJWvq4B3u-111" target="BNmCmgieaK2nJWvq4B3u-114" edge="1">
          <mxGeometry width="50" height="50" relative="1" as="geometry">
            <mxPoint x="1490" y="1030" as="sourcePoint" />
            <mxPoint x="1540" y="980" as="targetPoint" />
          </mxGeometry>
        </mxCell>
        <mxCell id="BNmCmgieaK2nJWvq4B3u-116" value="Admin mendata&lt;br&gt;Data peminjaman" style="rounded=0;whiteSpace=wrap;html=1;" parent="1" vertex="1">
          <mxGeometry x="1380" y="800" width="120" height="60" as="geometry" />
        </mxCell>
        <mxCell id="BNmCmgieaK2nJWvq4B3u-117" value="Admin mendata&lt;br&gt;Data Buku" style="rounded=0;whiteSpace=wrap;html=1;" parent="1" vertex="1">
          <mxGeometry x="1380" y="880" width="120" height="60" as="geometry" />
        </mxCell>
        <mxCell id="BNmCmgieaK2nJWvq4B3u-118" value="" style="endArrow=classic;html=1;rounded=0;exitX=0.5;exitY=1;exitDx=0;exitDy=0;entryX=0.5;entryY=0;entryDx=0;entryDy=0;" parent="1" source="BNmCmgieaK2nJWvq4B3u-107" target="BNmCmgieaK2nJWvq4B3u-116" edge="1">
          <mxGeometry width="50" height="50" relative="1" as="geometry">
            <mxPoint x="1470" y="920" as="sourcePoint" />
            <mxPoint x="1520" y="870" as="targetPoint" />
          </mxGeometry>
        </mxCell>
        <mxCell id="BNmCmgieaK2nJWvq4B3u-119" value="" style="endArrow=classic;html=1;rounded=0;exitX=0.5;exitY=1;exitDx=0;exitDy=0;entryX=0.5;entryY=0;entryDx=0;entryDy=0;" parent="1" source="BNmCmgieaK2nJWvq4B3u-116" target="BNmCmgieaK2nJWvq4B3u-117" edge="1">
          <mxGeometry width="50" height="50" relative="1" as="geometry">
            <mxPoint x="1470" y="920" as="sourcePoint" />
            <mxPoint x="1520" y="870" as="targetPoint" />
          </mxGeometry>
        </mxCell>
        <mxCell id="BNmCmgieaK2nJWvq4B3u-120" value="" style="endArrow=classic;html=1;rounded=0;exitX=0.5;exitY=1;exitDx=0;exitDy=0;entryX=0.5;entryY=0;entryDx=0;entryDy=0;" parent="1" source="BNmCmgieaK2nJWvq4B3u-117" target="BNmCmgieaK2nJWvq4B3u-109" edge="1">
          <mxGeometry width="50" height="50" relative="1" as="geometry">
            <mxPoint x="1470" y="920" as="sourcePoint" />
            <mxPoint x="1520" y="870" as="targetPoint" />
          </mxGeometry>
        </mxCell>
        <mxCell id="BNmCmgieaK2nJWvq4B3u-123" value="Data peminjaman" style="ellipse;whiteSpace=wrap;html=1;aspect=fixed;" parent="1" vertex="1">
          <mxGeometry x="1575" y="790" width="80" height="80" as="geometry" />
        </mxCell>
        <mxCell id="BNmCmgieaK2nJWvq4B3u-125" value="Data user" style="ellipse;whiteSpace=wrap;html=1;aspect=fixed;" parent="1" vertex="1">
          <mxGeometry x="1580" y="715" width="70" height="70" as="geometry" />
        </mxCell>
        <mxCell id="BNmCmgieaK2nJWvq4B3u-127" value="Data Buku" style="ellipse;whiteSpace=wrap;html=1;aspect=fixed;" parent="1" vertex="1">
          <mxGeometry x="1580" y="875" width="70" height="70" as="geometry" />
        </mxCell>
        <mxCell id="BNmCmgieaK2nJWvq4B3u-128" value="" style="endArrow=classic;html=1;rounded=0;exitX=1;exitY=0.5;exitDx=0;exitDy=0;entryX=0;entryY=0.5;entryDx=0;entryDy=0;" parent="1" source="BNmCmgieaK2nJWvq4B3u-107" target="BNmCmgieaK2nJWvq4B3u-125" edge="1">
          <mxGeometry width="50" height="50" relative="1" as="geometry">
            <mxPoint x="1470" y="930" as="sourcePoint" />
            <mxPoint x="1520" y="880" as="targetPoint" />
          </mxGeometry>
        </mxCell>
        <mxCell id="BNmCmgieaK2nJWvq4B3u-129" value="" style="endArrow=classic;html=1;rounded=0;exitX=1;exitY=0.5;exitDx=0;exitDy=0;entryX=0;entryY=0.5;entryDx=0;entryDy=0;" parent="1" source="BNmCmgieaK2nJWvq4B3u-116" target="BNmCmgieaK2nJWvq4B3u-123" edge="1">
          <mxGeometry width="50" height="50" relative="1" as="geometry">
            <mxPoint x="1650" y="920" as="sourcePoint" />
            <mxPoint x="1700" y="870" as="targetPoint" />
          </mxGeometry>
        </mxCell>
        <mxCell id="BNmCmgieaK2nJWvq4B3u-130" value="" style="endArrow=classic;html=1;rounded=0;exitX=1;exitY=0.5;exitDx=0;exitDy=0;entryX=0;entryY=0.5;entryDx=0;entryDy=0;" parent="1" source="BNmCmgieaK2nJWvq4B3u-117" target="BNmCmgieaK2nJWvq4B3u-127" edge="1">
          <mxGeometry width="50" height="50" relative="1" as="geometry">
            <mxPoint x="1550" y="920" as="sourcePoint" />
            <mxPoint x="1600" y="870" as="targetPoint" />
          </mxGeometry>
        </mxCell>
        <mxCell id="BNmCmgieaK2nJWvq4B3u-131" value="Mulai" style="ellipse;whiteSpace=wrap;html=1;" parent="1" vertex="1">
          <mxGeometry x="1874" y="550" width="80" height="50" as="geometry" />
        </mxCell>
        <mxCell id="BNmCmgieaK2nJWvq4B3u-132" value="Petugas Login" style="shape=parallelogram;perimeter=parallelogramPerimeter;whiteSpace=wrap;html=1;fixedSize=1;" parent="1" vertex="1">
          <mxGeometry x="1844" y="630" width="140" height="60" as="geometry" />
        </mxCell>
        <mxCell id="BNmCmgieaK2nJWvq4B3u-133" value="" style="endArrow=classic;html=1;rounded=0;exitX=0.5;exitY=1;exitDx=0;exitDy=0;entryX=0.5;entryY=0;entryDx=0;entryDy=0;" parent="1" source="BNmCmgieaK2nJWvq4B3u-131" target="BNmCmgieaK2nJWvq4B3u-132" edge="1">
          <mxGeometry width="50" height="50" relative="1" as="geometry">
            <mxPoint x="1964" y="640" as="sourcePoint" />
            <mxPoint x="2014" y="590" as="targetPoint" />
          </mxGeometry>
        </mxCell>
        <mxCell id="BNmCmgieaK2nJWvq4B3u-134" value="Login" style="ellipse;whiteSpace=wrap;html=1;aspect=fixed;" parent="1" vertex="1">
          <mxGeometry x="1754" y="630" width="60" height="60" as="geometry" />
        </mxCell>
        <mxCell id="BNmCmgieaK2nJWvq4B3u-135" value="" style="endArrow=classic;html=1;rounded=0;exitX=0;exitY=0.5;exitDx=0;exitDy=0;entryX=1;entryY=0.5;entryDx=0;entryDy=0;" parent="1" source="BNmCmgieaK2nJWvq4B3u-132" target="BNmCmgieaK2nJWvq4B3u-134" edge="1">
          <mxGeometry width="50" height="50" relative="1" as="geometry">
            <mxPoint x="1724" y="640" as="sourcePoint" />
            <mxPoint x="1774" y="590" as="targetPoint" />
          </mxGeometry>
        </mxCell>
        <mxCell id="BNmCmgieaK2nJWvq4B3u-136" value="Petugas mendata&lt;br&gt;Data user" style="rounded=0;whiteSpace=wrap;html=1;" parent="1" vertex="1">
          <mxGeometry x="1854" y="720" width="120" height="60" as="geometry" />
        </mxCell>
        <mxCell id="BNmCmgieaK2nJWvq4B3u-137" value="" style="endArrow=classic;html=1;rounded=0;exitX=0.5;exitY=1;exitDx=0;exitDy=0;entryX=0.5;entryY=0;entryDx=0;entryDy=0;" parent="1" source="BNmCmgieaK2nJWvq4B3u-132" target="BNmCmgieaK2nJWvq4B3u-136" edge="1">
          <mxGeometry width="50" height="50" relative="1" as="geometry">
            <mxPoint x="1964" y="630" as="sourcePoint" />
            <mxPoint x="2014" y="580" as="targetPoint" />
          </mxGeometry>
        </mxCell>
        <mxCell id="BNmCmgieaK2nJWvq4B3u-138" value="Petugas bisa&lt;br&gt;membuat laporan" style="shape=parallelogram;perimeter=parallelogramPerimeter;whiteSpace=wrap;html=1;fixedSize=1;" parent="1" vertex="1">
          <mxGeometry x="1839" y="970" width="150" height="60" as="geometry" />
        </mxCell>
        <mxCell id="BNmCmgieaK2nJWvq4B3u-139" value="Logout" style="rounded=0;whiteSpace=wrap;html=1;" parent="1" vertex="1">
          <mxGeometry x="1864" y="1070" width="100" height="50" as="geometry" />
        </mxCell>
        <mxCell id="BNmCmgieaK2nJWvq4B3u-140" value="" style="endArrow=classic;html=1;rounded=0;exitX=0.5;exitY=1;exitDx=0;exitDy=0;entryX=0.5;entryY=0;entryDx=0;entryDy=0;" parent="1" source="BNmCmgieaK2nJWvq4B3u-138" target="BNmCmgieaK2nJWvq4B3u-139" edge="1">
          <mxGeometry width="50" height="50" relative="1" as="geometry">
            <mxPoint x="1964" y="1030" as="sourcePoint" />
            <mxPoint x="2014" y="980" as="targetPoint" />
          </mxGeometry>
        </mxCell>
        <mxCell id="BNmCmgieaK2nJWvq4B3u-141" value="" style="endArrow=classic;html=1;rounded=0;exitX=0;exitY=0.5;exitDx=0;exitDy=0;entryX=0.5;entryY=1;entryDx=0;entryDy=0;" parent="1" source="BNmCmgieaK2nJWvq4B3u-139" target="BNmCmgieaK2nJWvq4B3u-134" edge="1">
          <mxGeometry width="50" height="50" relative="1" as="geometry">
            <mxPoint x="1964" y="860" as="sourcePoint" />
            <mxPoint x="2014" y="810" as="targetPoint" />
            <Array as="points">
              <mxPoint x="1784" y="1095" />
            </Array>
          </mxGeometry>
        </mxCell>
        <mxCell id="BNmCmgieaK2nJWvq4B3u-142" value="Selesai" style="ellipse;whiteSpace=wrap;html=1;" parent="1" vertex="1">
          <mxGeometry x="1874" y="1150" width="80" height="50" as="geometry" />
        </mxCell>
        <mxCell id="BNmCmgieaK2nJWvq4B3u-143" value="" style="endArrow=classic;html=1;rounded=0;exitX=0.5;exitY=1;exitDx=0;exitDy=0;entryX=0.5;entryY=0;entryDx=0;entryDy=0;" parent="1" source="BNmCmgieaK2nJWvq4B3u-139" target="BNmCmgieaK2nJWvq4B3u-142" edge="1">
          <mxGeometry width="50" height="50" relative="1" as="geometry">
            <mxPoint x="1964" y="1030" as="sourcePoint" />
            <mxPoint x="2014" y="980" as="targetPoint" />
          </mxGeometry>
        </mxCell>
        <mxCell id="BNmCmgieaK2nJWvq4B3u-144" value="Petugas mendata&lt;br&gt;Data peminjaman" style="rounded=0;whiteSpace=wrap;html=1;" parent="1" vertex="1">
          <mxGeometry x="1854" y="800" width="120" height="60" as="geometry" />
        </mxCell>
        <mxCell id="BNmCmgieaK2nJWvq4B3u-145" value="Petugas mendata&lt;br&gt;Data Buku" style="rounded=0;whiteSpace=wrap;html=1;" parent="1" vertex="1">
          <mxGeometry x="1854" y="880" width="120" height="60" as="geometry" />
        </mxCell>
        <mxCell id="BNmCmgieaK2nJWvq4B3u-146" value="" style="endArrow=classic;html=1;rounded=0;exitX=0.5;exitY=1;exitDx=0;exitDy=0;entryX=0.5;entryY=0;entryDx=0;entryDy=0;" parent="1" source="BNmCmgieaK2nJWvq4B3u-136" target="BNmCmgieaK2nJWvq4B3u-144" edge="1">
          <mxGeometry width="50" height="50" relative="1" as="geometry">
            <mxPoint x="1944" y="920" as="sourcePoint" />
            <mxPoint x="1994" y="870" as="targetPoint" />
          </mxGeometry>
        </mxCell>
        <mxCell id="BNmCmgieaK2nJWvq4B3u-147" value="" style="endArrow=classic;html=1;rounded=0;exitX=0.5;exitY=1;exitDx=0;exitDy=0;entryX=0.5;entryY=0;entryDx=0;entryDy=0;" parent="1" source="BNmCmgieaK2nJWvq4B3u-144" target="BNmCmgieaK2nJWvq4B3u-145" edge="1">
          <mxGeometry width="50" height="50" relative="1" as="geometry">
            <mxPoint x="1944" y="920" as="sourcePoint" />
            <mxPoint x="1994" y="870" as="targetPoint" />
          </mxGeometry>
        </mxCell>
        <mxCell id="BNmCmgieaK2nJWvq4B3u-148" value="" style="endArrow=classic;html=1;rounded=0;exitX=0.5;exitY=1;exitDx=0;exitDy=0;entryX=0.5;entryY=0;entryDx=0;entryDy=0;" parent="1" source="BNmCmgieaK2nJWvq4B3u-145" target="BNmCmgieaK2nJWvq4B3u-138" edge="1">
          <mxGeometry width="50" height="50" relative="1" as="geometry">
            <mxPoint x="1944" y="920" as="sourcePoint" />
            <mxPoint x="1994" y="870" as="targetPoint" />
          </mxGeometry>
        </mxCell>
        <mxCell id="BNmCmgieaK2nJWvq4B3u-149" value="Data peminjaman" style="ellipse;whiteSpace=wrap;html=1;aspect=fixed;" parent="1" vertex="1">
          <mxGeometry x="2049" y="790" width="80" height="80" as="geometry" />
        </mxCell>
        <mxCell id="BNmCmgieaK2nJWvq4B3u-150" value="Data user" style="ellipse;whiteSpace=wrap;html=1;aspect=fixed;" parent="1" vertex="1">
          <mxGeometry x="2054" y="715" width="70" height="70" as="geometry" />
        </mxCell>
        <mxCell id="BNmCmgieaK2nJWvq4B3u-151" value="Data Buku" style="ellipse;whiteSpace=wrap;html=1;aspect=fixed;" parent="1" vertex="1">
          <mxGeometry x="2054" y="875" width="70" height="70" as="geometry" />
        </mxCell>
        <mxCell id="BNmCmgieaK2nJWvq4B3u-152" value="" style="endArrow=classic;html=1;rounded=0;exitX=1;exitY=0.5;exitDx=0;exitDy=0;entryX=0;entryY=0.5;entryDx=0;entryDy=0;" parent="1" source="BNmCmgieaK2nJWvq4B3u-136" target="BNmCmgieaK2nJWvq4B3u-150" edge="1">
          <mxGeometry width="50" height="50" relative="1" as="geometry">
            <mxPoint x="1944" y="930" as="sourcePoint" />
            <mxPoint x="1994" y="880" as="targetPoint" />
          </mxGeometry>
        </mxCell>
        <mxCell id="BNmCmgieaK2nJWvq4B3u-153" value="" style="endArrow=classic;html=1;rounded=0;exitX=1;exitY=0.5;exitDx=0;exitDy=0;entryX=0;entryY=0.5;entryDx=0;entryDy=0;" parent="1" source="BNmCmgieaK2nJWvq4B3u-144" target="BNmCmgieaK2nJWvq4B3u-149" edge="1">
          <mxGeometry width="50" height="50" relative="1" as="geometry">
            <mxPoint x="2124" y="920" as="sourcePoint" />
            <mxPoint x="2174" y="870" as="targetPoint" />
          </mxGeometry>
        </mxCell>
        <mxCell id="BNmCmgieaK2nJWvq4B3u-154" value="" style="endArrow=classic;html=1;rounded=0;exitX=1;exitY=0.5;exitDx=0;exitDy=0;entryX=0;entryY=0.5;entryDx=0;entryDy=0;" parent="1" source="BNmCmgieaK2nJWvq4B3u-145" target="BNmCmgieaK2nJWvq4B3u-151" edge="1">
          <mxGeometry width="50" height="50" relative="1" as="geometry">
            <mxPoint x="2024" y="920" as="sourcePoint" />
            <mxPoint x="2074" y="870" as="targetPoint" />
          </mxGeometry>
        </mxCell>
        <mxCell id="BNmCmgieaK2nJWvq4B3u-155" value="&lt;h1&gt;Algoritma Data User&lt;/h1&gt;&lt;p&gt;1. Mulai&lt;/p&gt;&lt;p&gt;2. Admin / petugas masuk ke Tab data user&lt;/p&gt;&lt;p&gt;3. Admin / petugas bisa melihat data user yaitu IDuser, email, nama lengkap, alamat, dan level user&lt;/p&gt;&lt;p&gt;4. Admin / petugas bisa menghapus Akun dari Data user&lt;/p&gt;&lt;p&gt;5. selesai&lt;/p&gt;" style="text;html=1;strokeColor=none;fillColor=none;spacing=5;spacingTop=-20;whiteSpace=wrap;overflow=hidden;rounded=0;" parent="1" vertex="1">
          <mxGeometry x="2693" y="210" width="460" height="340" as="geometry" />
        </mxCell>
        <mxCell id="BNmCmgieaK2nJWvq4B3u-156" value="" style="endArrow=classic;html=1;rounded=0;exitX=0.5;exitY=1;exitDx=0;exitDy=0;entryX=0.5;entryY=0;entryDx=0;entryDy=0;" parent="1" source="BNmCmgieaK2nJWvq4B3u-26" target="BNmCmgieaK2nJWvq4B3u-25" edge="1">
          <mxGeometry width="50" height="50" relative="1" as="geometry">
            <mxPoint x="580" y="1470" as="sourcePoint" />
            <mxPoint x="630" y="1420" as="targetPoint" />
          </mxGeometry>
        </mxCell>
        <mxCell id="BNmCmgieaK2nJWvq4B3u-157" value="Masuk ke halaman Peminjam" style="rounded=1;whiteSpace=wrap;html=1;" parent="1" vertex="1">
          <mxGeometry x="580" y="1445" width="145" height="70" as="geometry" />
        </mxCell>
        <mxCell id="BNmCmgieaK2nJWvq4B3u-158" value="Masuk ke halaman Petugas" style="rounded=1;whiteSpace=wrap;html=1;" parent="1" vertex="1">
          <mxGeometry x="580" y="1540" width="145" height="70" as="geometry" />
        </mxCell>
        <mxCell id="BNmCmgieaK2nJWvq4B3u-159" value="" style="endArrow=classic;html=1;rounded=0;exitX=1;exitY=0.5;exitDx=0;exitDy=0;entryX=0;entryY=0.5;entryDx=0;entryDy=0;" parent="1" source="BNmCmgieaK2nJWvq4B3u-24" target="BNmCmgieaK2nJWvq4B3u-27" edge="1">
          <mxGeometry width="50" height="50" relative="1" as="geometry">
            <mxPoint x="580" y="1460" as="sourcePoint" />
            <mxPoint x="630" y="1410" as="targetPoint" />
          </mxGeometry>
        </mxCell>
        <mxCell id="BNmCmgieaK2nJWvq4B3u-160" value="" style="endArrow=classic;html=1;rounded=0;exitX=1;exitY=0.5;exitDx=0;exitDy=0;entryX=0;entryY=0.5;entryDx=0;entryDy=0;" parent="1" source="BNmCmgieaK2nJWvq4B3u-26" target="BNmCmgieaK2nJWvq4B3u-157" edge="1">
          <mxGeometry width="50" height="50" relative="1" as="geometry">
            <mxPoint x="580" y="1460" as="sourcePoint" />
            <mxPoint x="630" y="1410" as="targetPoint" />
          </mxGeometry>
        </mxCell>
        <mxCell id="BNmCmgieaK2nJWvq4B3u-161" value="" style="endArrow=classic;html=1;rounded=0;exitX=1;exitY=0.5;exitDx=0;exitDy=0;entryX=0;entryY=0.5;entryDx=0;entryDy=0;" parent="1" source="BNmCmgieaK2nJWvq4B3u-25" target="BNmCmgieaK2nJWvq4B3u-158" edge="1">
          <mxGeometry width="50" height="50" relative="1" as="geometry">
            <mxPoint x="580" y="1580" as="sourcePoint" />
            <mxPoint x="630" y="1530" as="targetPoint" />
          </mxGeometry>
        </mxCell>
        <mxCell id="BNmCmgieaK2nJWvq4B3u-163" value="" style="endArrow=classic;html=1;rounded=0;exitX=0.5;exitY=1;exitDx=0;exitDy=0;entryX=0.5;entryY=0;entryDx=0;entryDy=0;" parent="1" source="BNmCmgieaK2nJWvq4B3u-158" target="BNmCmgieaK2nJWvq4B3u-35" edge="1">
          <mxGeometry width="50" height="50" relative="1" as="geometry">
            <mxPoint x="780" y="1550" as="sourcePoint" />
            <mxPoint x="830" y="1500" as="targetPoint" />
          </mxGeometry>
        </mxCell>
        <mxCell id="BNmCmgieaK2nJWvq4B3u-164" value="" style="endArrow=classic;html=1;rounded=0;exitX=1;exitY=0.5;exitDx=0;exitDy=0;" parent="1" edge="1">
          <mxGeometry width="50" height="50" relative="1" as="geometry">
            <mxPoint x="727" y="1385" as="sourcePoint" />
            <mxPoint x="652" y="1630" as="targetPoint" />
            <Array as="points">
              <mxPoint x="762" y="1385" />
              <mxPoint x="762" y="1630" />
            </Array>
          </mxGeometry>
        </mxCell>
        <mxCell id="BNmCmgieaK2nJWvq4B3u-165" value="" style="endArrow=classic;html=1;rounded=0;exitX=1;exitY=0.5;exitDx=0;exitDy=0;" parent="1" source="BNmCmgieaK2nJWvq4B3u-157" edge="1">
          <mxGeometry width="50" height="50" relative="1" as="geometry">
            <mxPoint x="730" y="1480" as="sourcePoint" />
            <mxPoint x="762" y="1480" as="targetPoint" />
          </mxGeometry>
        </mxCell>
        <mxCell id="BNmCmgieaK2nJWvq4B3u-166" value="&lt;h1&gt;Algoritma Data buku&lt;/h1&gt;&lt;p&gt;1. Mulai&lt;/p&gt;&lt;p&gt;2. Admin / Petugas masuk ke halaman Data buku&lt;/p&gt;&lt;p&gt;3. Admin / Petugas bisa menghapus Data buku&lt;/p&gt;&lt;p&gt;4. Input data Judul, Penerbit, Penulis, tahun terbit, dan gambar buku&lt;/p&gt;&lt;p&gt;5. klik submit&lt;/p&gt;&lt;p&gt;6. Tampilkan &quot; data terkirim &quot;&lt;/p&gt;&lt;p&gt;7. selesai&amp;nbsp;&lt;/p&gt;&lt;p&gt;&lt;br&gt;&lt;/p&gt;" style="text;html=1;strokeColor=none;fillColor=none;spacing=5;spacingTop=-20;whiteSpace=wrap;overflow=hidden;rounded=0;" parent="1" vertex="1">
          <mxGeometry x="3180" y="210" width="460" height="230" as="geometry" />
        </mxCell>
        <mxCell id="BNmCmgieaK2nJWvq4B3u-167" value="Mulai" style="ellipse;whiteSpace=wrap;html=1;" parent="1" vertex="1">
          <mxGeometry x="1400" y="1241" width="80" height="50" as="geometry" />
        </mxCell>
        <mxCell id="BNmCmgieaK2nJWvq4B3u-168" value="Admin Login" style="shape=parallelogram;perimeter=parallelogramPerimeter;whiteSpace=wrap;html=1;fixedSize=1;" parent="1" vertex="1">
          <mxGeometry x="1370" y="1321" width="140" height="60" as="geometry" />
        </mxCell>
        <mxCell id="BNmCmgieaK2nJWvq4B3u-169" value="" style="endArrow=classic;html=1;rounded=0;exitX=0.5;exitY=1;exitDx=0;exitDy=0;entryX=0.5;entryY=0;entryDx=0;entryDy=0;" parent="1" source="BNmCmgieaK2nJWvq4B3u-167" target="BNmCmgieaK2nJWvq4B3u-168" edge="1">
          <mxGeometry width="50" height="50" relative="1" as="geometry">
            <mxPoint x="1490" y="1331" as="sourcePoint" />
            <mxPoint x="1540" y="1281" as="targetPoint" />
          </mxGeometry>
        </mxCell>
        <mxCell id="BNmCmgieaK2nJWvq4B3u-170" value="Login" style="ellipse;whiteSpace=wrap;html=1;aspect=fixed;" parent="1" vertex="1">
          <mxGeometry x="1280" y="1321" width="60" height="60" as="geometry" />
        </mxCell>
        <mxCell id="BNmCmgieaK2nJWvq4B3u-171" value="" style="endArrow=classic;html=1;rounded=0;exitX=0;exitY=0.5;exitDx=0;exitDy=0;entryX=1;entryY=0.5;entryDx=0;entryDy=0;" parent="1" source="BNmCmgieaK2nJWvq4B3u-168" target="BNmCmgieaK2nJWvq4B3u-170" edge="1">
          <mxGeometry width="50" height="50" relative="1" as="geometry">
            <mxPoint x="1250" y="1331" as="sourcePoint" />
            <mxPoint x="1300" y="1281" as="targetPoint" />
          </mxGeometry>
        </mxCell>
        <mxCell id="BNmCmgieaK2nJWvq4B3u-172" value="Admin Melakukan pendataan" style="rounded=0;whiteSpace=wrap;html=1;" parent="1" vertex="1">
          <mxGeometry x="1380" y="1411" width="120" height="60" as="geometry" />
        </mxCell>
        <mxCell id="BNmCmgieaK2nJWvq4B3u-173" value="" style="endArrow=classic;html=1;rounded=0;exitX=0.5;exitY=1;exitDx=0;exitDy=0;entryX=0.5;entryY=0;entryDx=0;entryDy=0;" parent="1" source="BNmCmgieaK2nJWvq4B3u-168" target="BNmCmgieaK2nJWvq4B3u-172" edge="1">
          <mxGeometry width="50" height="50" relative="1" as="geometry">
            <mxPoint x="1490" y="1321" as="sourcePoint" />
            <mxPoint x="1540" y="1271" as="targetPoint" />
          </mxGeometry>
        </mxCell>
        <mxCell id="BNmCmgieaK2nJWvq4B3u-174" value="Admin bisa&lt;br&gt;membuat laporan" style="shape=parallelogram;perimeter=parallelogramPerimeter;whiteSpace=wrap;html=1;fixedSize=1;" parent="1" vertex="1">
          <mxGeometry x="1365" y="1501" width="150" height="60" as="geometry" />
        </mxCell>
        <mxCell id="BNmCmgieaK2nJWvq4B3u-175" value="" style="endArrow=classic;html=1;rounded=0;exitX=0.5;exitY=1;exitDx=0;exitDy=0;entryX=0.5;entryY=0;entryDx=0;entryDy=0;" parent="1" source="BNmCmgieaK2nJWvq4B3u-172" target="BNmCmgieaK2nJWvq4B3u-174" edge="1">
          <mxGeometry width="50" height="50" relative="1" as="geometry">
            <mxPoint x="1490" y="1551" as="sourcePoint" />
            <mxPoint x="1540" y="1501" as="targetPoint" />
          </mxGeometry>
        </mxCell>
        <mxCell id="BNmCmgieaK2nJWvq4B3u-176" value="Logout" style="rounded=0;whiteSpace=wrap;html=1;" parent="1" vertex="1">
          <mxGeometry x="1390" y="1591" width="100" height="50" as="geometry" />
        </mxCell>
        <mxCell id="BNmCmgieaK2nJWvq4B3u-177" value="" style="endArrow=classic;html=1;rounded=0;exitX=0.5;exitY=1;exitDx=0;exitDy=0;entryX=0.5;entryY=0;entryDx=0;entryDy=0;" parent="1" source="BNmCmgieaK2nJWvq4B3u-174" target="BNmCmgieaK2nJWvq4B3u-176" edge="1">
          <mxGeometry width="50" height="50" relative="1" as="geometry">
            <mxPoint x="1490" y="1551" as="sourcePoint" />
            <mxPoint x="1540" y="1501" as="targetPoint" />
          </mxGeometry>
        </mxCell>
        <mxCell id="BNmCmgieaK2nJWvq4B3u-178" value="" style="endArrow=classic;html=1;rounded=0;exitX=0;exitY=0.5;exitDx=0;exitDy=0;entryX=0.5;entryY=1;entryDx=0;entryDy=0;" parent="1" source="BNmCmgieaK2nJWvq4B3u-176" target="BNmCmgieaK2nJWvq4B3u-170" edge="1">
          <mxGeometry width="50" height="50" relative="1" as="geometry">
            <mxPoint x="1490" y="1551" as="sourcePoint" />
            <mxPoint x="1540" y="1501" as="targetPoint" />
            <Array as="points">
              <mxPoint x="1310" y="1616" />
            </Array>
          </mxGeometry>
        </mxCell>
        <mxCell id="BNmCmgieaK2nJWvq4B3u-179" value="Selesai" style="ellipse;whiteSpace=wrap;html=1;" parent="1" vertex="1">
          <mxGeometry x="1400" y="1671" width="80" height="50" as="geometry" />
        </mxCell>
        <mxCell id="BNmCmgieaK2nJWvq4B3u-180" value="" style="endArrow=classic;html=1;rounded=0;exitX=0.5;exitY=1;exitDx=0;exitDy=0;entryX=0.5;entryY=0;entryDx=0;entryDy=0;" parent="1" source="BNmCmgieaK2nJWvq4B3u-176" target="BNmCmgieaK2nJWvq4B3u-179" edge="1">
          <mxGeometry width="50" height="50" relative="1" as="geometry">
            <mxPoint x="1490" y="1551" as="sourcePoint" />
            <mxPoint x="1540" y="1501" as="targetPoint" />
          </mxGeometry>
        </mxCell>
        <mxCell id="BNmCmgieaK2nJWvq4B3u-181" value="Mulai" style="ellipse;whiteSpace=wrap;html=1;" parent="1" vertex="1">
          <mxGeometry x="1890" y="1241" width="80" height="50" as="geometry" />
        </mxCell>
        <mxCell id="BNmCmgieaK2nJWvq4B3u-182" value="Petugas Login" style="shape=parallelogram;perimeter=parallelogramPerimeter;whiteSpace=wrap;html=1;fixedSize=1;" parent="1" vertex="1">
          <mxGeometry x="1860" y="1311" width="140" height="60" as="geometry" />
        </mxCell>
        <mxCell id="BNmCmgieaK2nJWvq4B3u-183" value="" style="endArrow=classic;html=1;rounded=0;exitX=0.5;exitY=1;exitDx=0;exitDy=0;entryX=0.5;entryY=0;entryDx=0;entryDy=0;" parent="1" source="BNmCmgieaK2nJWvq4B3u-181" target="BNmCmgieaK2nJWvq4B3u-182" edge="1">
          <mxGeometry width="50" height="50" relative="1" as="geometry">
            <mxPoint x="1980" y="1321" as="sourcePoint" />
            <mxPoint x="2030" y="1271" as="targetPoint" />
          </mxGeometry>
        </mxCell>
        <mxCell id="BNmCmgieaK2nJWvq4B3u-184" value="Login" style="ellipse;whiteSpace=wrap;html=1;aspect=fixed;" parent="1" vertex="1">
          <mxGeometry x="1770" y="1311" width="60" height="60" as="geometry" />
        </mxCell>
        <mxCell id="BNmCmgieaK2nJWvq4B3u-185" value="" style="endArrow=classic;html=1;rounded=0;exitX=0;exitY=0.5;exitDx=0;exitDy=0;entryX=1;entryY=0.5;entryDx=0;entryDy=0;" parent="1" source="BNmCmgieaK2nJWvq4B3u-182" target="BNmCmgieaK2nJWvq4B3u-184" edge="1">
          <mxGeometry width="50" height="50" relative="1" as="geometry">
            <mxPoint x="1740" y="1321" as="sourcePoint" />
            <mxPoint x="1790" y="1271" as="targetPoint" />
          </mxGeometry>
        </mxCell>
        <mxCell id="BNmCmgieaK2nJWvq4B3u-186" value="Petugas Melakukan pendataan" style="rounded=0;whiteSpace=wrap;html=1;" parent="1" vertex="1">
          <mxGeometry x="1870" y="1401" width="120" height="60" as="geometry" />
        </mxCell>
        <mxCell id="BNmCmgieaK2nJWvq4B3u-187" value="" style="endArrow=classic;html=1;rounded=0;exitX=0.5;exitY=1;exitDx=0;exitDy=0;entryX=0.5;entryY=0;entryDx=0;entryDy=0;" parent="1" source="BNmCmgieaK2nJWvq4B3u-182" target="BNmCmgieaK2nJWvq4B3u-186" edge="1">
          <mxGeometry width="50" height="50" relative="1" as="geometry">
            <mxPoint x="1980" y="1311" as="sourcePoint" />
            <mxPoint x="2030" y="1261" as="targetPoint" />
          </mxGeometry>
        </mxCell>
        <mxCell id="BNmCmgieaK2nJWvq4B3u-188" value="Petugas bisa&lt;br&gt;membuat laporan" style="shape=parallelogram;perimeter=parallelogramPerimeter;whiteSpace=wrap;html=1;fixedSize=1;" parent="1" vertex="1">
          <mxGeometry x="1855" y="1491" width="150" height="60" as="geometry" />
        </mxCell>
        <mxCell id="BNmCmgieaK2nJWvq4B3u-189" value="" style="endArrow=classic;html=1;rounded=0;exitX=0.5;exitY=1;exitDx=0;exitDy=0;entryX=0.5;entryY=0;entryDx=0;entryDy=0;" parent="1" source="BNmCmgieaK2nJWvq4B3u-186" target="BNmCmgieaK2nJWvq4B3u-188" edge="1">
          <mxGeometry width="50" height="50" relative="1" as="geometry">
            <mxPoint x="1980" y="1541" as="sourcePoint" />
            <mxPoint x="2030" y="1491" as="targetPoint" />
          </mxGeometry>
        </mxCell>
        <mxCell id="BNmCmgieaK2nJWvq4B3u-190" value="Logout" style="rounded=0;whiteSpace=wrap;html=1;" parent="1" vertex="1">
          <mxGeometry x="1880" y="1581" width="100" height="50" as="geometry" />
        </mxCell>
        <mxCell id="BNmCmgieaK2nJWvq4B3u-191" value="" style="endArrow=classic;html=1;rounded=0;exitX=0.5;exitY=1;exitDx=0;exitDy=0;entryX=0.5;entryY=0;entryDx=0;entryDy=0;" parent="1" source="BNmCmgieaK2nJWvq4B3u-188" target="BNmCmgieaK2nJWvq4B3u-190" edge="1">
          <mxGeometry width="50" height="50" relative="1" as="geometry">
            <mxPoint x="1980" y="1541" as="sourcePoint" />
            <mxPoint x="2030" y="1491" as="targetPoint" />
          </mxGeometry>
        </mxCell>
        <mxCell id="BNmCmgieaK2nJWvq4B3u-192" value="" style="endArrow=classic;html=1;rounded=0;exitX=0;exitY=0.5;exitDx=0;exitDy=0;entryX=0.5;entryY=1;entryDx=0;entryDy=0;" parent="1" source="BNmCmgieaK2nJWvq4B3u-190" target="BNmCmgieaK2nJWvq4B3u-184" edge="1">
          <mxGeometry width="50" height="50" relative="1" as="geometry">
            <mxPoint x="1980" y="1541" as="sourcePoint" />
            <mxPoint x="2030" y="1491" as="targetPoint" />
            <Array as="points">
              <mxPoint x="1800" y="1606" />
            </Array>
          </mxGeometry>
        </mxCell>
        <mxCell id="BNmCmgieaK2nJWvq4B3u-193" value="Selesai" style="ellipse;whiteSpace=wrap;html=1;" parent="1" vertex="1">
          <mxGeometry x="1890" y="1661" width="80" height="50" as="geometry" />
        </mxCell>
        <mxCell id="BNmCmgieaK2nJWvq4B3u-194" value="" style="endArrow=classic;html=1;rounded=0;exitX=0.5;exitY=1;exitDx=0;exitDy=0;entryX=0.5;entryY=0;entryDx=0;entryDy=0;" parent="1" source="BNmCmgieaK2nJWvq4B3u-190" target="BNmCmgieaK2nJWvq4B3u-193" edge="1">
          <mxGeometry width="50" height="50" relative="1" as="geometry">
            <mxPoint x="1980" y="1541" as="sourcePoint" />
            <mxPoint x="2030" y="1491" as="targetPoint" />
          </mxGeometry>
        </mxCell>
        <mxCell id="BNmCmgieaK2nJWvq4B3u-196" value="Mulai" style="ellipse;whiteSpace=wrap;html=1;" parent="1" vertex="1">
          <mxGeometry x="1400" y="1241" width="80" height="50" as="geometry" />
        </mxCell>
        <mxCell id="BNmCmgieaK2nJWvq4B3u-197" value="Admin Login" style="shape=parallelogram;perimeter=parallelogramPerimeter;whiteSpace=wrap;html=1;fixedSize=1;" parent="1" vertex="1">
          <mxGeometry x="1370" y="1321" width="140" height="60" as="geometry" />
        </mxCell>
        <mxCell id="BNmCmgieaK2nJWvq4B3u-198" value="" style="endArrow=classic;html=1;rounded=0;exitX=0.5;exitY=1;exitDx=0;exitDy=0;entryX=0.5;entryY=0;entryDx=0;entryDy=0;" parent="1" source="BNmCmgieaK2nJWvq4B3u-196" target="BNmCmgieaK2nJWvq4B3u-197" edge="1">
          <mxGeometry width="50" height="50" relative="1" as="geometry">
            <mxPoint x="1490" y="1331" as="sourcePoint" />
            <mxPoint x="1540" y="1281" as="targetPoint" />
          </mxGeometry>
        </mxCell>
        <mxCell id="BNmCmgieaK2nJWvq4B3u-199" value="Login" style="ellipse;whiteSpace=wrap;html=1;aspect=fixed;" parent="1" vertex="1">
          <mxGeometry x="1280" y="1321" width="60" height="60" as="geometry" />
        </mxCell>
        <mxCell id="BNmCmgieaK2nJWvq4B3u-200" value="" style="endArrow=classic;html=1;rounded=0;exitX=0;exitY=0.5;exitDx=0;exitDy=0;entryX=1;entryY=0.5;entryDx=0;entryDy=0;" parent="1" source="BNmCmgieaK2nJWvq4B3u-197" target="BNmCmgieaK2nJWvq4B3u-199" edge="1">
          <mxGeometry width="50" height="50" relative="1" as="geometry">
            <mxPoint x="1250" y="1331" as="sourcePoint" />
            <mxPoint x="1300" y="1281" as="targetPoint" />
          </mxGeometry>
        </mxCell>
        <mxCell id="BNmCmgieaK2nJWvq4B3u-201" value="Admin Melakukan pendataan" style="rounded=0;whiteSpace=wrap;html=1;" parent="1" vertex="1">
          <mxGeometry x="1380" y="1411" width="120" height="60" as="geometry" />
        </mxCell>
        <mxCell id="BNmCmgieaK2nJWvq4B3u-202" value="" style="endArrow=classic;html=1;rounded=0;exitX=0.5;exitY=1;exitDx=0;exitDy=0;entryX=0.5;entryY=0;entryDx=0;entryDy=0;" parent="1" source="BNmCmgieaK2nJWvq4B3u-197" target="BNmCmgieaK2nJWvq4B3u-201" edge="1">
          <mxGeometry width="50" height="50" relative="1" as="geometry">
            <mxPoint x="1490" y="1321" as="sourcePoint" />
            <mxPoint x="1540" y="1271" as="targetPoint" />
          </mxGeometry>
        </mxCell>
        <mxCell id="BNmCmgieaK2nJWvq4B3u-203" value="Admin bisa&lt;br&gt;membuat laporan" style="shape=parallelogram;perimeter=parallelogramPerimeter;whiteSpace=wrap;html=1;fixedSize=1;" parent="1" vertex="1">
          <mxGeometry x="1365" y="1501" width="150" height="60" as="geometry" />
        </mxCell>
        <mxCell id="BNmCmgieaK2nJWvq4B3u-204" value="" style="endArrow=classic;html=1;rounded=0;exitX=0.5;exitY=1;exitDx=0;exitDy=0;entryX=0.5;entryY=0;entryDx=0;entryDy=0;" parent="1" source="BNmCmgieaK2nJWvq4B3u-201" target="BNmCmgieaK2nJWvq4B3u-203" edge="1">
          <mxGeometry width="50" height="50" relative="1" as="geometry">
            <mxPoint x="1490" y="1551" as="sourcePoint" />
            <mxPoint x="1540" y="1501" as="targetPoint" />
          </mxGeometry>
        </mxCell>
        <mxCell id="BNmCmgieaK2nJWvq4B3u-205" value="Logout" style="rounded=0;whiteSpace=wrap;html=1;" parent="1" vertex="1">
          <mxGeometry x="1390" y="1591" width="100" height="50" as="geometry" />
        </mxCell>
        <mxCell id="BNmCmgieaK2nJWvq4B3u-206" value="" style="endArrow=classic;html=1;rounded=0;exitX=0.5;exitY=1;exitDx=0;exitDy=0;entryX=0.5;entryY=0;entryDx=0;entryDy=0;" parent="1" source="BNmCmgieaK2nJWvq4B3u-203" target="BNmCmgieaK2nJWvq4B3u-205" edge="1">
          <mxGeometry width="50" height="50" relative="1" as="geometry">
            <mxPoint x="1490" y="1551" as="sourcePoint" />
            <mxPoint x="1540" y="1501" as="targetPoint" />
          </mxGeometry>
        </mxCell>
        <mxCell id="BNmCmgieaK2nJWvq4B3u-207" value="" style="endArrow=classic;html=1;rounded=0;exitX=0;exitY=0.5;exitDx=0;exitDy=0;entryX=0.5;entryY=1;entryDx=0;entryDy=0;" parent="1" source="BNmCmgieaK2nJWvq4B3u-205" target="BNmCmgieaK2nJWvq4B3u-199" edge="1">
          <mxGeometry width="50" height="50" relative="1" as="geometry">
            <mxPoint x="1490" y="1551" as="sourcePoint" />
            <mxPoint x="1540" y="1501" as="targetPoint" />
            <Array as="points">
              <mxPoint x="1310" y="1616" />
            </Array>
          </mxGeometry>
        </mxCell>
        <mxCell id="BNmCmgieaK2nJWvq4B3u-208" value="Selesai" style="ellipse;whiteSpace=wrap;html=1;" parent="1" vertex="1">
          <mxGeometry x="1400" y="1671" width="80" height="50" as="geometry" />
        </mxCell>
        <mxCell id="BNmCmgieaK2nJWvq4B3u-209" value="" style="endArrow=classic;html=1;rounded=0;exitX=0.5;exitY=1;exitDx=0;exitDy=0;entryX=0.5;entryY=0;entryDx=0;entryDy=0;" parent="1" source="BNmCmgieaK2nJWvq4B3u-205" target="BNmCmgieaK2nJWvq4B3u-208" edge="1">
          <mxGeometry width="50" height="50" relative="1" as="geometry">
            <mxPoint x="1490" y="1551" as="sourcePoint" />
            <mxPoint x="1540" y="1501" as="targetPoint" />
          </mxGeometry>
        </mxCell>
        <mxCell id="BNmCmgieaK2nJWvq4B3u-210" value="Mulai" style="ellipse;whiteSpace=wrap;html=1;" parent="1" vertex="1">
          <mxGeometry x="1890" y="1241" width="80" height="50" as="geometry" />
        </mxCell>
        <mxCell id="BNmCmgieaK2nJWvq4B3u-211" value="Petugas Login" style="shape=parallelogram;perimeter=parallelogramPerimeter;whiteSpace=wrap;html=1;fixedSize=1;" parent="1" vertex="1">
          <mxGeometry x="1860" y="1311" width="140" height="60" as="geometry" />
        </mxCell>
        <mxCell id="BNmCmgieaK2nJWvq4B3u-212" value="" style="endArrow=classic;html=1;rounded=0;exitX=0.5;exitY=1;exitDx=0;exitDy=0;entryX=0.5;entryY=0;entryDx=0;entryDy=0;" parent="1" source="BNmCmgieaK2nJWvq4B3u-210" target="BNmCmgieaK2nJWvq4B3u-211" edge="1">
          <mxGeometry width="50" height="50" relative="1" as="geometry">
            <mxPoint x="1980" y="1321" as="sourcePoint" />
            <mxPoint x="2030" y="1271" as="targetPoint" />
          </mxGeometry>
        </mxCell>
        <mxCell id="BNmCmgieaK2nJWvq4B3u-213" value="Login" style="ellipse;whiteSpace=wrap;html=1;aspect=fixed;" parent="1" vertex="1">
          <mxGeometry x="1770" y="1311" width="60" height="60" as="geometry" />
        </mxCell>
        <mxCell id="BNmCmgieaK2nJWvq4B3u-214" value="" style="endArrow=classic;html=1;rounded=0;exitX=0;exitY=0.5;exitDx=0;exitDy=0;entryX=1;entryY=0.5;entryDx=0;entryDy=0;" parent="1" source="BNmCmgieaK2nJWvq4B3u-211" target="BNmCmgieaK2nJWvq4B3u-213" edge="1">
          <mxGeometry width="50" height="50" relative="1" as="geometry">
            <mxPoint x="1740" y="1321" as="sourcePoint" />
            <mxPoint x="1790" y="1271" as="targetPoint" />
          </mxGeometry>
        </mxCell>
        <mxCell id="BNmCmgieaK2nJWvq4B3u-215" value="Petugas Melakukan pendataan" style="rounded=0;whiteSpace=wrap;html=1;" parent="1" vertex="1">
          <mxGeometry x="1870" y="1401" width="120" height="60" as="geometry" />
        </mxCell>
        <mxCell id="BNmCmgieaK2nJWvq4B3u-216" value="" style="endArrow=classic;html=1;rounded=0;exitX=0.5;exitY=1;exitDx=0;exitDy=0;entryX=0.5;entryY=0;entryDx=0;entryDy=0;" parent="1" source="BNmCmgieaK2nJWvq4B3u-211" target="BNmCmgieaK2nJWvq4B3u-215" edge="1">
          <mxGeometry width="50" height="50" relative="1" as="geometry">
            <mxPoint x="1980" y="1311" as="sourcePoint" />
            <mxPoint x="2030" y="1261" as="targetPoint" />
          </mxGeometry>
        </mxCell>
        <mxCell id="BNmCmgieaK2nJWvq4B3u-217" value="Petugas bisa&lt;br&gt;membuat laporan" style="shape=parallelogram;perimeter=parallelogramPerimeter;whiteSpace=wrap;html=1;fixedSize=1;" parent="1" vertex="1">
          <mxGeometry x="1855" y="1491" width="150" height="60" as="geometry" />
        </mxCell>
        <mxCell id="BNmCmgieaK2nJWvq4B3u-218" value="" style="endArrow=classic;html=1;rounded=0;exitX=0.5;exitY=1;exitDx=0;exitDy=0;entryX=0.5;entryY=0;entryDx=0;entryDy=0;" parent="1" source="BNmCmgieaK2nJWvq4B3u-215" target="BNmCmgieaK2nJWvq4B3u-217" edge="1">
          <mxGeometry width="50" height="50" relative="1" as="geometry">
            <mxPoint x="1980" y="1541" as="sourcePoint" />
            <mxPoint x="2030" y="1491" as="targetPoint" />
          </mxGeometry>
        </mxCell>
        <mxCell id="BNmCmgieaK2nJWvq4B3u-219" value="Logout" style="rounded=0;whiteSpace=wrap;html=1;" parent="1" vertex="1">
          <mxGeometry x="1880" y="1581" width="100" height="50" as="geometry" />
        </mxCell>
        <mxCell id="BNmCmgieaK2nJWvq4B3u-220" value="" style="endArrow=classic;html=1;rounded=0;exitX=0.5;exitY=1;exitDx=0;exitDy=0;entryX=0.5;entryY=0;entryDx=0;entryDy=0;" parent="1" source="BNmCmgieaK2nJWvq4B3u-217" target="BNmCmgieaK2nJWvq4B3u-219" edge="1">
          <mxGeometry width="50" height="50" relative="1" as="geometry">
            <mxPoint x="1980" y="1541" as="sourcePoint" />
            <mxPoint x="2030" y="1491" as="targetPoint" />
          </mxGeometry>
        </mxCell>
        <mxCell id="BNmCmgieaK2nJWvq4B3u-221" value="" style="endArrow=classic;html=1;rounded=0;exitX=0;exitY=0.5;exitDx=0;exitDy=0;entryX=0.5;entryY=1;entryDx=0;entryDy=0;" parent="1" source="BNmCmgieaK2nJWvq4B3u-219" target="BNmCmgieaK2nJWvq4B3u-213" edge="1">
          <mxGeometry width="50" height="50" relative="1" as="geometry">
            <mxPoint x="1980" y="1541" as="sourcePoint" />
            <mxPoint x="2030" y="1491" as="targetPoint" />
            <Array as="points">
              <mxPoint x="1800" y="1606" />
            </Array>
          </mxGeometry>
        </mxCell>
        <mxCell id="BNmCmgieaK2nJWvq4B3u-222" value="Selesai" style="ellipse;whiteSpace=wrap;html=1;" parent="1" vertex="1">
          <mxGeometry x="1890" y="1661" width="80" height="50" as="geometry" />
        </mxCell>
        <mxCell id="BNmCmgieaK2nJWvq4B3u-223" value="" style="endArrow=classic;html=1;rounded=0;exitX=0.5;exitY=1;exitDx=0;exitDy=0;entryX=0.5;entryY=0;entryDx=0;entryDy=0;" parent="1" source="BNmCmgieaK2nJWvq4B3u-219" target="BNmCmgieaK2nJWvq4B3u-222" edge="1">
          <mxGeometry width="50" height="50" relative="1" as="geometry">
            <mxPoint x="1980" y="1541" as="sourcePoint" />
            <mxPoint x="2030" y="1491" as="targetPoint" />
          </mxGeometry>
        </mxCell>
        <mxCell id="BNmCmgieaK2nJWvq4B3u-224" value="Mulai" style="ellipse;whiteSpace=wrap;html=1;" parent="1" vertex="1">
          <mxGeometry x="1400" y="1241" width="80" height="50" as="geometry" />
        </mxCell>
        <mxCell id="BNmCmgieaK2nJWvq4B3u-225" value="Admin Login" style="shape=parallelogram;perimeter=parallelogramPerimeter;whiteSpace=wrap;html=1;fixedSize=1;" parent="1" vertex="1">
          <mxGeometry x="1370" y="1321" width="140" height="60" as="geometry" />
        </mxCell>
        <mxCell id="BNmCmgieaK2nJWvq4B3u-226" value="" style="endArrow=classic;html=1;rounded=0;exitX=0.5;exitY=1;exitDx=0;exitDy=0;entryX=0.5;entryY=0;entryDx=0;entryDy=0;" parent="1" source="BNmCmgieaK2nJWvq4B3u-224" target="BNmCmgieaK2nJWvq4B3u-225" edge="1">
          <mxGeometry width="50" height="50" relative="1" as="geometry">
            <mxPoint x="1490" y="1331" as="sourcePoint" />
            <mxPoint x="1540" y="1281" as="targetPoint" />
          </mxGeometry>
        </mxCell>
        <mxCell id="BNmCmgieaK2nJWvq4B3u-227" value="Login" style="ellipse;whiteSpace=wrap;html=1;aspect=fixed;" parent="1" vertex="1">
          <mxGeometry x="1280" y="1321" width="60" height="60" as="geometry" />
        </mxCell>
        <mxCell id="BNmCmgieaK2nJWvq4B3u-228" value="" style="endArrow=classic;html=1;rounded=0;exitX=0;exitY=0.5;exitDx=0;exitDy=0;entryX=1;entryY=0.5;entryDx=0;entryDy=0;" parent="1" source="BNmCmgieaK2nJWvq4B3u-225" target="BNmCmgieaK2nJWvq4B3u-227" edge="1">
          <mxGeometry width="50" height="50" relative="1" as="geometry">
            <mxPoint x="1250" y="1331" as="sourcePoint" />
            <mxPoint x="1300" y="1281" as="targetPoint" />
          </mxGeometry>
        </mxCell>
        <mxCell id="BNmCmgieaK2nJWvq4B3u-229" value="Admin Melakukan pendataan" style="rounded=0;whiteSpace=wrap;html=1;" parent="1" vertex="1">
          <mxGeometry x="1380" y="1411" width="120" height="60" as="geometry" />
        </mxCell>
        <mxCell id="BNmCmgieaK2nJWvq4B3u-230" value="" style="endArrow=classic;html=1;rounded=0;exitX=0.5;exitY=1;exitDx=0;exitDy=0;entryX=0.5;entryY=0;entryDx=0;entryDy=0;" parent="1" source="BNmCmgieaK2nJWvq4B3u-225" target="BNmCmgieaK2nJWvq4B3u-229" edge="1">
          <mxGeometry width="50" height="50" relative="1" as="geometry">
            <mxPoint x="1490" y="1321" as="sourcePoint" />
            <mxPoint x="1540" y="1271" as="targetPoint" />
          </mxGeometry>
        </mxCell>
        <mxCell id="BNmCmgieaK2nJWvq4B3u-231" value="Admin bisa&lt;br&gt;membuat laporan" style="shape=parallelogram;perimeter=parallelogramPerimeter;whiteSpace=wrap;html=1;fixedSize=1;" parent="1" vertex="1">
          <mxGeometry x="1365" y="1501" width="150" height="60" as="geometry" />
        </mxCell>
        <mxCell id="BNmCmgieaK2nJWvq4B3u-232" value="" style="endArrow=classic;html=1;rounded=0;exitX=0.5;exitY=1;exitDx=0;exitDy=0;entryX=0.5;entryY=0;entryDx=0;entryDy=0;" parent="1" source="BNmCmgieaK2nJWvq4B3u-229" target="BNmCmgieaK2nJWvq4B3u-231" edge="1">
          <mxGeometry width="50" height="50" relative="1" as="geometry">
            <mxPoint x="1490" y="1551" as="sourcePoint" />
            <mxPoint x="1540" y="1501" as="targetPoint" />
          </mxGeometry>
        </mxCell>
        <mxCell id="BNmCmgieaK2nJWvq4B3u-233" value="Logout" style="rounded=0;whiteSpace=wrap;html=1;" parent="1" vertex="1">
          <mxGeometry x="1390" y="1591" width="100" height="50" as="geometry" />
        </mxCell>
        <mxCell id="BNmCmgieaK2nJWvq4B3u-234" value="" style="endArrow=classic;html=1;rounded=0;exitX=0.5;exitY=1;exitDx=0;exitDy=0;entryX=0.5;entryY=0;entryDx=0;entryDy=0;" parent="1" source="BNmCmgieaK2nJWvq4B3u-231" target="BNmCmgieaK2nJWvq4B3u-233" edge="1">
          <mxGeometry width="50" height="50" relative="1" as="geometry">
            <mxPoint x="1490" y="1551" as="sourcePoint" />
            <mxPoint x="1540" y="1501" as="targetPoint" />
          </mxGeometry>
        </mxCell>
        <mxCell id="BNmCmgieaK2nJWvq4B3u-235" value="" style="endArrow=classic;html=1;rounded=0;exitX=0;exitY=0.5;exitDx=0;exitDy=0;entryX=0.5;entryY=1;entryDx=0;entryDy=0;" parent="1" source="BNmCmgieaK2nJWvq4B3u-233" target="BNmCmgieaK2nJWvq4B3u-227" edge="1">
          <mxGeometry width="50" height="50" relative="1" as="geometry">
            <mxPoint x="1490" y="1551" as="sourcePoint" />
            <mxPoint x="1540" y="1501" as="targetPoint" />
            <Array as="points">
              <mxPoint x="1310" y="1616" />
            </Array>
          </mxGeometry>
        </mxCell>
        <mxCell id="BNmCmgieaK2nJWvq4B3u-236" value="Selesai" style="ellipse;whiteSpace=wrap;html=1;" parent="1" vertex="1">
          <mxGeometry x="1400" y="1671" width="80" height="50" as="geometry" />
        </mxCell>
        <mxCell id="BNmCmgieaK2nJWvq4B3u-237" value="" style="endArrow=classic;html=1;rounded=0;exitX=0.5;exitY=1;exitDx=0;exitDy=0;entryX=0.5;entryY=0;entryDx=0;entryDy=0;" parent="1" source="BNmCmgieaK2nJWvq4B3u-233" target="BNmCmgieaK2nJWvq4B3u-236" edge="1">
          <mxGeometry width="50" height="50" relative="1" as="geometry">
            <mxPoint x="1490" y="1551" as="sourcePoint" />
            <mxPoint x="1540" y="1501" as="targetPoint" />
          </mxGeometry>
        </mxCell>
        <mxCell id="BNmCmgieaK2nJWvq4B3u-238" value="Mulai" style="ellipse;whiteSpace=wrap;html=1;" parent="1" vertex="1">
          <mxGeometry x="1890" y="1241" width="80" height="50" as="geometry" />
        </mxCell>
        <mxCell id="BNmCmgieaK2nJWvq4B3u-239" value="Petugas Login" style="shape=parallelogram;perimeter=parallelogramPerimeter;whiteSpace=wrap;html=1;fixedSize=1;" parent="1" vertex="1">
          <mxGeometry x="1860" y="1311" width="140" height="60" as="geometry" />
        </mxCell>
        <mxCell id="BNmCmgieaK2nJWvq4B3u-240" value="" style="endArrow=classic;html=1;rounded=0;exitX=0.5;exitY=1;exitDx=0;exitDy=0;entryX=0.5;entryY=0;entryDx=0;entryDy=0;" parent="1" source="BNmCmgieaK2nJWvq4B3u-238" target="BNmCmgieaK2nJWvq4B3u-239" edge="1">
          <mxGeometry width="50" height="50" relative="1" as="geometry">
            <mxPoint x="1980" y="1321" as="sourcePoint" />
            <mxPoint x="2030" y="1271" as="targetPoint" />
          </mxGeometry>
        </mxCell>
        <mxCell id="BNmCmgieaK2nJWvq4B3u-241" value="Login" style="ellipse;whiteSpace=wrap;html=1;aspect=fixed;" parent="1" vertex="1">
          <mxGeometry x="1770" y="1311" width="60" height="60" as="geometry" />
        </mxCell>
        <mxCell id="BNmCmgieaK2nJWvq4B3u-242" value="" style="endArrow=classic;html=1;rounded=0;exitX=0;exitY=0.5;exitDx=0;exitDy=0;entryX=1;entryY=0.5;entryDx=0;entryDy=0;" parent="1" source="BNmCmgieaK2nJWvq4B3u-239" target="BNmCmgieaK2nJWvq4B3u-241" edge="1">
          <mxGeometry width="50" height="50" relative="1" as="geometry">
            <mxPoint x="1740" y="1321" as="sourcePoint" />
            <mxPoint x="1790" y="1271" as="targetPoint" />
          </mxGeometry>
        </mxCell>
        <mxCell id="BNmCmgieaK2nJWvq4B3u-243" value="Petugas Melakukan pendataan" style="rounded=0;whiteSpace=wrap;html=1;" parent="1" vertex="1">
          <mxGeometry x="1870" y="1401" width="120" height="60" as="geometry" />
        </mxCell>
        <mxCell id="BNmCmgieaK2nJWvq4B3u-244" value="" style="endArrow=classic;html=1;rounded=0;exitX=0.5;exitY=1;exitDx=0;exitDy=0;entryX=0.5;entryY=0;entryDx=0;entryDy=0;" parent="1" source="BNmCmgieaK2nJWvq4B3u-239" target="BNmCmgieaK2nJWvq4B3u-243" edge="1">
          <mxGeometry width="50" height="50" relative="1" as="geometry">
            <mxPoint x="1980" y="1311" as="sourcePoint" />
            <mxPoint x="2030" y="1261" as="targetPoint" />
          </mxGeometry>
        </mxCell>
        <mxCell id="BNmCmgieaK2nJWvq4B3u-245" value="Petugas bisa&lt;br&gt;membuat laporan" style="shape=parallelogram;perimeter=parallelogramPerimeter;whiteSpace=wrap;html=1;fixedSize=1;" parent="1" vertex="1">
          <mxGeometry x="1855" y="1491" width="150" height="60" as="geometry" />
        </mxCell>
        <mxCell id="BNmCmgieaK2nJWvq4B3u-246" value="" style="endArrow=classic;html=1;rounded=0;exitX=0.5;exitY=1;exitDx=0;exitDy=0;entryX=0.5;entryY=0;entryDx=0;entryDy=0;" parent="1" source="BNmCmgieaK2nJWvq4B3u-243" target="BNmCmgieaK2nJWvq4B3u-245" edge="1">
          <mxGeometry width="50" height="50" relative="1" as="geometry">
            <mxPoint x="1980" y="1541" as="sourcePoint" />
            <mxPoint x="2030" y="1491" as="targetPoint" />
          </mxGeometry>
        </mxCell>
        <mxCell id="BNmCmgieaK2nJWvq4B3u-247" value="Logout" style="rounded=0;whiteSpace=wrap;html=1;" parent="1" vertex="1">
          <mxGeometry x="1880" y="1581" width="100" height="50" as="geometry" />
        </mxCell>
        <mxCell id="BNmCmgieaK2nJWvq4B3u-248" value="" style="endArrow=classic;html=1;rounded=0;exitX=0.5;exitY=1;exitDx=0;exitDy=0;entryX=0.5;entryY=0;entryDx=0;entryDy=0;" parent="1" source="BNmCmgieaK2nJWvq4B3u-245" target="BNmCmgieaK2nJWvq4B3u-247" edge="1">
          <mxGeometry width="50" height="50" relative="1" as="geometry">
            <mxPoint x="1980" y="1541" as="sourcePoint" />
            <mxPoint x="2030" y="1491" as="targetPoint" />
          </mxGeometry>
        </mxCell>
        <mxCell id="BNmCmgieaK2nJWvq4B3u-249" value="" style="endArrow=classic;html=1;rounded=0;exitX=0;exitY=0.5;exitDx=0;exitDy=0;entryX=0.5;entryY=1;entryDx=0;entryDy=0;" parent="1" source="BNmCmgieaK2nJWvq4B3u-247" target="BNmCmgieaK2nJWvq4B3u-241" edge="1">
          <mxGeometry width="50" height="50" relative="1" as="geometry">
            <mxPoint x="1980" y="1541" as="sourcePoint" />
            <mxPoint x="2030" y="1491" as="targetPoint" />
            <Array as="points">
              <mxPoint x="1800" y="1606" />
            </Array>
          </mxGeometry>
        </mxCell>
        <mxCell id="BNmCmgieaK2nJWvq4B3u-250" value="Selesai" style="ellipse;whiteSpace=wrap;html=1;" parent="1" vertex="1">
          <mxGeometry x="1890" y="1661" width="80" height="50" as="geometry" />
        </mxCell>
        <mxCell id="BNmCmgieaK2nJWvq4B3u-251" value="" style="endArrow=classic;html=1;rounded=0;exitX=0.5;exitY=1;exitDx=0;exitDy=0;entryX=0.5;entryY=0;entryDx=0;entryDy=0;" parent="1" source="BNmCmgieaK2nJWvq4B3u-247" target="BNmCmgieaK2nJWvq4B3u-250" edge="1">
          <mxGeometry width="50" height="50" relative="1" as="geometry">
            <mxPoint x="1980" y="1541" as="sourcePoint" />
            <mxPoint x="2030" y="1491" as="targetPoint" />
          </mxGeometry>
        </mxCell>
        <mxCell id="BNmCmgieaK2nJWvq4B3u-252" value="Admin Login" style="shape=parallelogram;perimeter=parallelogramPerimeter;whiteSpace=wrap;html=1;fixedSize=1;" parent="1" vertex="1">
          <mxGeometry x="1370" y="1321" width="140" height="60" as="geometry" />
        </mxCell>
        <mxCell id="BNmCmgieaK2nJWvq4B3u-253" value="" style="endArrow=classic;html=1;rounded=0;exitX=0.5;exitY=1;exitDx=0;exitDy=0;entryX=0.5;entryY=0;entryDx=0;entryDy=0;" parent="1" target="BNmCmgieaK2nJWvq4B3u-252" edge="1">
          <mxGeometry width="50" height="50" relative="1" as="geometry">
            <mxPoint x="1440" y="1291" as="sourcePoint" />
            <mxPoint x="1540" y="1281" as="targetPoint" />
          </mxGeometry>
        </mxCell>
        <mxCell id="BNmCmgieaK2nJWvq4B3u-254" value="Login" style="ellipse;whiteSpace=wrap;html=1;aspect=fixed;" parent="1" vertex="1">
          <mxGeometry x="1280" y="1321" width="60" height="60" as="geometry" />
        </mxCell>
        <mxCell id="BNmCmgieaK2nJWvq4B3u-255" value="" style="endArrow=classic;html=1;rounded=0;exitX=0;exitY=0.5;exitDx=0;exitDy=0;entryX=1;entryY=0.5;entryDx=0;entryDy=0;" parent="1" source="BNmCmgieaK2nJWvq4B3u-252" target="BNmCmgieaK2nJWvq4B3u-254" edge="1">
          <mxGeometry width="50" height="50" relative="1" as="geometry">
            <mxPoint x="1250" y="1331" as="sourcePoint" />
            <mxPoint x="1300" y="1281" as="targetPoint" />
          </mxGeometry>
        </mxCell>
        <mxCell id="BNmCmgieaK2nJWvq4B3u-256" value="Admin Melakukan pendataan" style="rounded=0;whiteSpace=wrap;html=1;" parent="1" vertex="1">
          <mxGeometry x="1380" y="1411" width="120" height="60" as="geometry" />
        </mxCell>
        <mxCell id="BNmCmgieaK2nJWvq4B3u-257" value="" style="endArrow=classic;html=1;rounded=0;exitX=0.5;exitY=1;exitDx=0;exitDy=0;entryX=0.5;entryY=0;entryDx=0;entryDy=0;" parent="1" source="BNmCmgieaK2nJWvq4B3u-252" target="BNmCmgieaK2nJWvq4B3u-256" edge="1">
          <mxGeometry width="50" height="50" relative="1" as="geometry">
            <mxPoint x="1490" y="1321" as="sourcePoint" />
            <mxPoint x="1540" y="1271" as="targetPoint" />
          </mxGeometry>
        </mxCell>
        <mxCell id="BNmCmgieaK2nJWvq4B3u-258" value="Admin bisa&lt;br&gt;membuat laporan" style="shape=parallelogram;perimeter=parallelogramPerimeter;whiteSpace=wrap;html=1;fixedSize=1;" parent="1" vertex="1">
          <mxGeometry x="1365" y="1501" width="150" height="60" as="geometry" />
        </mxCell>
        <mxCell id="BNmCmgieaK2nJWvq4B3u-259" value="" style="endArrow=classic;html=1;rounded=0;exitX=0.5;exitY=1;exitDx=0;exitDy=0;entryX=0.5;entryY=0;entryDx=0;entryDy=0;" parent="1" source="BNmCmgieaK2nJWvq4B3u-256" target="BNmCmgieaK2nJWvq4B3u-258" edge="1">
          <mxGeometry width="50" height="50" relative="1" as="geometry">
            <mxPoint x="1490" y="1551" as="sourcePoint" />
            <mxPoint x="1540" y="1501" as="targetPoint" />
          </mxGeometry>
        </mxCell>
        <mxCell id="BNmCmgieaK2nJWvq4B3u-260" value="Admin Login" style="shape=parallelogram;perimeter=parallelogramPerimeter;whiteSpace=wrap;html=1;fixedSize=1;" parent="1" vertex="1">
          <mxGeometry x="1370" y="1321" width="140" height="60" as="geometry" />
        </mxCell>
        <mxCell id="BNmCmgieaK2nJWvq4B3u-261" value="" style="endArrow=classic;html=1;rounded=0;exitX=0.5;exitY=1;exitDx=0;exitDy=0;entryX=0.5;entryY=0;entryDx=0;entryDy=0;" parent="1" target="BNmCmgieaK2nJWvq4B3u-260" edge="1">
          <mxGeometry width="50" height="50" relative="1" as="geometry">
            <mxPoint x="1440" y="1291" as="sourcePoint" />
            <mxPoint x="1540" y="1281" as="targetPoint" />
          </mxGeometry>
        </mxCell>
        <mxCell id="BNmCmgieaK2nJWvq4B3u-262" value="Login" style="ellipse;whiteSpace=wrap;html=1;aspect=fixed;" parent="1" vertex="1">
          <mxGeometry x="1280" y="1321" width="60" height="60" as="geometry" />
        </mxCell>
        <mxCell id="BNmCmgieaK2nJWvq4B3u-263" value="" style="endArrow=classic;html=1;rounded=0;exitX=0;exitY=0.5;exitDx=0;exitDy=0;entryX=1;entryY=0.5;entryDx=0;entryDy=0;" parent="1" source="BNmCmgieaK2nJWvq4B3u-260" target="BNmCmgieaK2nJWvq4B3u-262" edge="1">
          <mxGeometry width="50" height="50" relative="1" as="geometry">
            <mxPoint x="1250" y="1331" as="sourcePoint" />
            <mxPoint x="1300" y="1281" as="targetPoint" />
          </mxGeometry>
        </mxCell>
        <mxCell id="BNmCmgieaK2nJWvq4B3u-264" value="Admin Melakukan pendataan" style="rounded=0;whiteSpace=wrap;html=1;" parent="1" vertex="1">
          <mxGeometry x="1380" y="1411" width="120" height="60" as="geometry" />
        </mxCell>
        <mxCell id="BNmCmgieaK2nJWvq4B3u-265" value="" style="endArrow=classic;html=1;rounded=0;exitX=0.5;exitY=1;exitDx=0;exitDy=0;entryX=0.5;entryY=0;entryDx=0;entryDy=0;" parent="1" source="BNmCmgieaK2nJWvq4B3u-260" target="BNmCmgieaK2nJWvq4B3u-264" edge="1">
          <mxGeometry width="50" height="50" relative="1" as="geometry">
            <mxPoint x="1490" y="1321" as="sourcePoint" />
            <mxPoint x="1540" y="1271" as="targetPoint" />
          </mxGeometry>
        </mxCell>
        <mxCell id="BNmCmgieaK2nJWvq4B3u-266" value="Admin bisa&lt;br&gt;membuat laporan" style="shape=parallelogram;perimeter=parallelogramPerimeter;whiteSpace=wrap;html=1;fixedSize=1;" parent="1" vertex="1">
          <mxGeometry x="1365" y="1501" width="150" height="60" as="geometry" />
        </mxCell>
        <mxCell id="BNmCmgieaK2nJWvq4B3u-267" value="" style="endArrow=classic;html=1;rounded=0;exitX=0.5;exitY=1;exitDx=0;exitDy=0;entryX=0.5;entryY=0;entryDx=0;entryDy=0;" parent="1" source="BNmCmgieaK2nJWvq4B3u-264" target="BNmCmgieaK2nJWvq4B3u-266" edge="1">
          <mxGeometry width="50" height="50" relative="1" as="geometry">
            <mxPoint x="1490" y="1551" as="sourcePoint" />
            <mxPoint x="1540" y="1501" as="targetPoint" />
          </mxGeometry>
        </mxCell>
        <mxCell id="BNmCmgieaK2nJWvq4B3u-268" value="Admin Login" style="shape=parallelogram;perimeter=parallelogramPerimeter;whiteSpace=wrap;html=1;fixedSize=1;" parent="1" vertex="1">
          <mxGeometry x="1370" y="1321" width="140" height="60" as="geometry" />
        </mxCell>
        <mxCell id="BNmCmgieaK2nJWvq4B3u-269" value="" style="endArrow=classic;html=1;rounded=0;exitX=0.5;exitY=1;exitDx=0;exitDy=0;entryX=0.5;entryY=0;entryDx=0;entryDy=0;" parent="1" target="BNmCmgieaK2nJWvq4B3u-268" edge="1">
          <mxGeometry width="50" height="50" relative="1" as="geometry">
            <mxPoint x="1440" y="1291" as="sourcePoint" />
            <mxPoint x="1540" y="1281" as="targetPoint" />
          </mxGeometry>
        </mxCell>
        <mxCell id="BNmCmgieaK2nJWvq4B3u-270" value="Login" style="ellipse;whiteSpace=wrap;html=1;aspect=fixed;" parent="1" vertex="1">
          <mxGeometry x="1280" y="1321" width="60" height="60" as="geometry" />
        </mxCell>
        <mxCell id="BNmCmgieaK2nJWvq4B3u-271" value="" style="endArrow=classic;html=1;rounded=0;exitX=0;exitY=0.5;exitDx=0;exitDy=0;entryX=1;entryY=0.5;entryDx=0;entryDy=0;" parent="1" source="BNmCmgieaK2nJWvq4B3u-268" target="BNmCmgieaK2nJWvq4B3u-270" edge="1">
          <mxGeometry width="50" height="50" relative="1" as="geometry">
            <mxPoint x="1250" y="1331" as="sourcePoint" />
            <mxPoint x="1300" y="1281" as="targetPoint" />
          </mxGeometry>
        </mxCell>
        <mxCell id="BNmCmgieaK2nJWvq4B3u-272" value="Admin Melakukan pendataan" style="rounded=0;whiteSpace=wrap;html=1;" parent="1" vertex="1">
          <mxGeometry x="1380" y="1411" width="120" height="60" as="geometry" />
        </mxCell>
        <mxCell id="BNmCmgieaK2nJWvq4B3u-273" value="" style="endArrow=classic;html=1;rounded=0;exitX=0.5;exitY=1;exitDx=0;exitDy=0;entryX=0.5;entryY=0;entryDx=0;entryDy=0;" parent="1" source="BNmCmgieaK2nJWvq4B3u-268" target="BNmCmgieaK2nJWvq4B3u-272" edge="1">
          <mxGeometry width="50" height="50" relative="1" as="geometry">
            <mxPoint x="1490" y="1321" as="sourcePoint" />
            <mxPoint x="1540" y="1271" as="targetPoint" />
          </mxGeometry>
        </mxCell>
        <mxCell id="BNmCmgieaK2nJWvq4B3u-274" value="Admin bisa&lt;br&gt;membuat laporan" style="shape=parallelogram;perimeter=parallelogramPerimeter;whiteSpace=wrap;html=1;fixedSize=1;" parent="1" vertex="1">
          <mxGeometry x="1365" y="1501" width="150" height="60" as="geometry" />
        </mxCell>
        <mxCell id="BNmCmgieaK2nJWvq4B3u-275" value="" style="endArrow=classic;html=1;rounded=0;exitX=0.5;exitY=1;exitDx=0;exitDy=0;entryX=0.5;entryY=0;entryDx=0;entryDy=0;" parent="1" source="BNmCmgieaK2nJWvq4B3u-272" target="BNmCmgieaK2nJWvq4B3u-274" edge="1">
          <mxGeometry width="50" height="50" relative="1" as="geometry">
            <mxPoint x="1490" y="1551" as="sourcePoint" />
            <mxPoint x="1540" y="1501" as="targetPoint" />
          </mxGeometry>
        </mxCell>
        <mxCell id="BNmCmgieaK2nJWvq4B3u-276" value="Admin Login" style="shape=parallelogram;perimeter=parallelogramPerimeter;whiteSpace=wrap;html=1;fixedSize=1;" parent="1" vertex="1">
          <mxGeometry x="1370" y="1321" width="140" height="60" as="geometry" />
        </mxCell>
        <mxCell id="BNmCmgieaK2nJWvq4B3u-277" value="" style="endArrow=classic;html=1;rounded=0;exitX=0.5;exitY=1;exitDx=0;exitDy=0;entryX=0.5;entryY=0;entryDx=0;entryDy=0;" parent="1" source="BNmCmgieaK2nJWvq4B3u-283" target="BNmCmgieaK2nJWvq4B3u-276" edge="1">
          <mxGeometry width="50" height="50" relative="1" as="geometry">
            <mxPoint x="1490" y="1331" as="sourcePoint" />
            <mxPoint x="1540" y="1281" as="targetPoint" />
          </mxGeometry>
        </mxCell>
        <mxCell id="BNmCmgieaK2nJWvq4B3u-278" value="Login" style="ellipse;whiteSpace=wrap;html=1;aspect=fixed;" parent="1" vertex="1">
          <mxGeometry x="1280" y="1321" width="60" height="60" as="geometry" />
        </mxCell>
        <mxCell id="BNmCmgieaK2nJWvq4B3u-279" value="" style="endArrow=classic;html=1;rounded=0;exitX=0;exitY=0.5;exitDx=0;exitDy=0;entryX=1;entryY=0.5;entryDx=0;entryDy=0;" parent="1" source="BNmCmgieaK2nJWvq4B3u-276" target="BNmCmgieaK2nJWvq4B3u-278" edge="1">
          <mxGeometry width="50" height="50" relative="1" as="geometry">
            <mxPoint x="1250" y="1331" as="sourcePoint" />
            <mxPoint x="1300" y="1281" as="targetPoint" />
          </mxGeometry>
        </mxCell>
        <mxCell id="BNmCmgieaK2nJWvq4B3u-280" value="Admin Melakukan pendataan" style="rounded=0;whiteSpace=wrap;html=1;" parent="1" vertex="1">
          <mxGeometry x="1380" y="1411" width="120" height="60" as="geometry" />
        </mxCell>
        <mxCell id="BNmCmgieaK2nJWvq4B3u-281" value="" style="endArrow=classic;html=1;rounded=0;exitX=0.5;exitY=1;exitDx=0;exitDy=0;entryX=0.5;entryY=0;entryDx=0;entryDy=0;" parent="1" source="BNmCmgieaK2nJWvq4B3u-276" target="BNmCmgieaK2nJWvq4B3u-280" edge="1">
          <mxGeometry width="50" height="50" relative="1" as="geometry">
            <mxPoint x="1490" y="1321" as="sourcePoint" />
            <mxPoint x="1540" y="1271" as="targetPoint" />
          </mxGeometry>
        </mxCell>
        <mxCell id="BNmCmgieaK2nJWvq4B3u-282" value="" style="endArrow=classic;html=1;rounded=0;exitX=0.5;exitY=1;exitDx=0;exitDy=0;entryX=0.5;entryY=0;entryDx=0;entryDy=0;" parent="1" source="BNmCmgieaK2nJWvq4B3u-280" edge="1">
          <mxGeometry width="50" height="50" relative="1" as="geometry">
            <mxPoint x="1490" y="1551" as="sourcePoint" />
            <mxPoint x="1440" y="1501" as="targetPoint" />
          </mxGeometry>
        </mxCell>
        <mxCell id="BNmCmgieaK2nJWvq4B3u-283" value="Mulai" style="ellipse;whiteSpace=wrap;html=1;" parent="1" vertex="1">
          <mxGeometry x="1400" y="1241" width="80" height="50" as="geometry" />
        </mxCell>
        <mxCell id="BNmCmgieaK2nJWvq4B3u-284" value="Logout" style="rounded=0;whiteSpace=wrap;html=1;" parent="1" vertex="1">
          <mxGeometry x="1390" y="1591" width="100" height="50" as="geometry" />
        </mxCell>
        <mxCell id="BNmCmgieaK2nJWvq4B3u-285" value="" style="endArrow=classic;html=1;rounded=0;exitX=0.5;exitY=1;exitDx=0;exitDy=0;entryX=0.5;entryY=0;entryDx=0;entryDy=0;" parent="1" source="BNmCmgieaK2nJWvq4B3u-284" target="BNmCmgieaK2nJWvq4B3u-286" edge="1">
          <mxGeometry width="50" height="50" relative="1" as="geometry">
            <mxPoint x="1490" y="1551" as="sourcePoint" />
            <mxPoint x="1540" y="1501" as="targetPoint" />
          </mxGeometry>
        </mxCell>
        <mxCell id="BNmCmgieaK2nJWvq4B3u-286" value="Selesai" style="ellipse;whiteSpace=wrap;html=1;" parent="1" vertex="1">
          <mxGeometry x="1400" y="1671" width="80" height="50" as="geometry" />
        </mxCell>
        <mxCell id="BNmCmgieaK2nJWvq4B3u-287" value="" style="endArrow=classic;html=1;rounded=0;exitX=0.5;exitY=1;exitDx=0;exitDy=0;entryX=0.5;entryY=0;entryDx=0;entryDy=0;" parent="1" target="BNmCmgieaK2nJWvq4B3u-284" edge="1">
          <mxGeometry width="50" height="50" relative="1" as="geometry">
            <mxPoint x="1440" y="1561" as="sourcePoint" />
            <mxPoint x="1540" y="1501" as="targetPoint" />
          </mxGeometry>
        </mxCell>
        <mxCell id="BNmCmgieaK2nJWvq4B3u-288" value="" style="endArrow=classic;html=1;rounded=0;exitX=0;exitY=0.5;exitDx=0;exitDy=0;entryX=0.5;entryY=1;entryDx=0;entryDy=0;" parent="1" source="BNmCmgieaK2nJWvq4B3u-284" target="BNmCmgieaK2nJWvq4B3u-278" edge="1">
          <mxGeometry width="50" height="50" relative="1" as="geometry">
            <mxPoint x="1490" y="1551" as="sourcePoint" />
            <mxPoint x="1540" y="1501" as="targetPoint" />
            <Array as="points">
              <mxPoint x="1310" y="1616" />
            </Array>
          </mxGeometry>
        </mxCell>
        <mxCell id="BNmCmgieaK2nJWvq4B3u-324" value="&lt;h1&gt;Algoritma Peminjaman&lt;/h1&gt;&lt;p&gt;1. Mulai&lt;/p&gt;&lt;p&gt;2. User memasuki tab Peminjaman&lt;/p&gt;&lt;p&gt;3. Jika Admin atau Petugas&lt;/p&gt;&lt;p&gt;4. maka hanya bisa melihat data peminjaman dan menghapus&lt;/p&gt;&lt;p&gt;5. jika Peminjam&lt;/p&gt;&lt;p&gt;6. Peminjam bisa meminjam buku dan melihat data buku yang bisa di pinjam&lt;/p&gt;&lt;p&gt;7. selesai&lt;/p&gt;" style="text;html=1;strokeColor=none;fillColor=none;spacing=5;spacingTop=-20;whiteSpace=wrap;overflow=hidden;rounded=0;" parent="1" vertex="1">
          <mxGeometry x="3632" y="210" width="460" height="230" as="geometry" />
        </mxCell>
        <mxCell id="BNmCmgieaK2nJWvq4B3u-325" value="Mulai" style="ellipse;whiteSpace=wrap;html=1;" parent="1" vertex="1">
          <mxGeometry x="2790" y="560" width="80" height="50" as="geometry" />
        </mxCell>
        <mxCell id="BNmCmgieaK2nJWvq4B3u-327" value="" style="endArrow=classic;html=1;rounded=0;exitX=0.5;exitY=1;exitDx=0;exitDy=0;entryX=0.5;entryY=0;entryDx=0;entryDy=0;" parent="1" source="BNmCmgieaK2nJWvq4B3u-325" target="BNmCmgieaK2nJWvq4B3u-330" edge="1">
          <mxGeometry width="50" height="50" relative="1" as="geometry">
            <mxPoint x="2880" y="640" as="sourcePoint" />
            <mxPoint x="2830.0000000000005" y="630" as="targetPoint" />
          </mxGeometry>
        </mxCell>
        <mxCell id="BNmCmgieaK2nJWvq4B3u-330" value="Admin / Petugas masuk ke&lt;br&gt;Tab Data user dan bisa menghapus" style="rounded=0;whiteSpace=wrap;html=1;" parent="1" vertex="1">
          <mxGeometry x="2730" y="635" width="200" height="80" as="geometry" />
        </mxCell>
        <mxCell id="BNmCmgieaK2nJWvq4B3u-332" value="Admin / Peminjam&lt;br&gt;bisa menghapus data" style="shape=parallelogram;perimeter=parallelogramPerimeter;whiteSpace=wrap;html=1;fixedSize=1;" parent="1" vertex="1">
          <mxGeometry x="2755" y="740" width="150" height="60" as="geometry" />
        </mxCell>
        <mxCell id="BNmCmgieaK2nJWvq4B3u-333" value="" style="endArrow=classic;html=1;rounded=0;exitX=0.5;exitY=1;exitDx=0;exitDy=0;entryX=0.5;entryY=0;entryDx=0;entryDy=0;" parent="1" source="BNmCmgieaK2nJWvq4B3u-330" target="BNmCmgieaK2nJWvq4B3u-332" edge="1">
          <mxGeometry width="50" height="50" relative="1" as="geometry">
            <mxPoint x="2880" y="860" as="sourcePoint" />
            <mxPoint x="2930" y="810" as="targetPoint" />
          </mxGeometry>
        </mxCell>
        <mxCell id="BNmCmgieaK2nJWvq4B3u-337" value="Selesai" style="ellipse;whiteSpace=wrap;html=1;" parent="1" vertex="1">
          <mxGeometry x="2790" y="840" width="80" height="50" as="geometry" />
        </mxCell>
        <mxCell id="BNmCmgieaK2nJWvq4B3u-338" value="" style="endArrow=classic;html=1;rounded=0;exitX=0.5;exitY=1;exitDx=0;exitDy=0;entryX=0.5;entryY=0;entryDx=0;entryDy=0;" parent="1" source="BNmCmgieaK2nJWvq4B3u-332" target="BNmCmgieaK2nJWvq4B3u-337" edge="1">
          <mxGeometry width="50" height="50" relative="1" as="geometry">
            <mxPoint x="2830.0000000000005" y="890" as="sourcePoint" />
            <mxPoint x="2930" y="810" as="targetPoint" />
          </mxGeometry>
        </mxCell>
        <mxCell id="BNmCmgieaK2nJWvq4B3u-339" value="&lt;span style=&quot;font-size: 22px;&quot;&gt;&lt;b&gt;Flowchart Data user&lt;/b&gt;&lt;/span&gt;" style="text;html=1;strokeColor=none;fillColor=none;align=center;verticalAlign=middle;whiteSpace=wrap;rounded=0;" parent="1" vertex="1">
          <mxGeometry x="2700" y="470" width="230" height="33" as="geometry" />
        </mxCell>
        <mxCell id="BNmCmgieaK2nJWvq4B3u-341" value="Mulai" style="ellipse;whiteSpace=wrap;html=1;" parent="1" vertex="1">
          <mxGeometry x="3280" y="560" width="80" height="50" as="geometry" />
        </mxCell>
        <mxCell id="BNmCmgieaK2nJWvq4B3u-342" value="" style="endArrow=classic;html=1;rounded=0;exitX=0.5;exitY=1;exitDx=0;exitDy=0;entryX=0.5;entryY=0;entryDx=0;entryDy=0;" parent="1" source="BNmCmgieaK2nJWvq4B3u-341" target="BNmCmgieaK2nJWvq4B3u-343" edge="1">
          <mxGeometry width="50" height="50" relative="1" as="geometry">
            <mxPoint x="3370" y="640" as="sourcePoint" />
            <mxPoint x="3320.0000000000005" y="630" as="targetPoint" />
          </mxGeometry>
        </mxCell>
        <mxCell id="BNmCmgieaK2nJWvq4B3u-343" value="Admin / Petugas masuk ke&lt;br&gt;Tab Data Buku" style="rounded=0;whiteSpace=wrap;html=1;" parent="1" vertex="1">
          <mxGeometry x="3220" y="635" width="200" height="80" as="geometry" />
        </mxCell>
        <mxCell id="BNmCmgieaK2nJWvq4B3u-344" value="Input data Judul, Penerbit, Penulis,&lt;br&gt;tahun terbit, dan gambar" style="shape=parallelogram;perimeter=parallelogramPerimeter;whiteSpace=wrap;html=1;fixedSize=1;" parent="1" vertex="1">
          <mxGeometry x="3202.5" y="927" width="235" height="73" as="geometry" />
        </mxCell>
        <mxCell id="BNmCmgieaK2nJWvq4B3u-346" value="Selesai" style="ellipse;whiteSpace=wrap;html=1;" parent="1" vertex="1">
          <mxGeometry x="3280" y="1140" width="80" height="50" as="geometry" />
        </mxCell>
        <mxCell id="BNmCmgieaK2nJWvq4B3u-348" value="&lt;span style=&quot;font-size: 22px;&quot;&gt;&lt;b&gt;Flowchart Data buku&lt;/b&gt;&lt;/span&gt;" style="text;html=1;strokeColor=none;fillColor=none;align=center;verticalAlign=middle;whiteSpace=wrap;rounded=0;" parent="1" vertex="1">
          <mxGeometry x="3190" y="470" width="230" height="33" as="geometry" />
        </mxCell>
        <mxCell id="BNmCmgieaK2nJWvq4B3u-349" value="Klik submit" style="rounded=0;whiteSpace=wrap;html=1;" parent="1" vertex="1">
          <mxGeometry x="3260" y="1050" width="120" height="40" as="geometry" />
        </mxCell>
        <mxCell id="BNmCmgieaK2nJWvq4B3u-350" value="" style="endArrow=classic;html=1;rounded=0;exitX=0.5;exitY=1;exitDx=0;exitDy=0;entryX=0.5;entryY=0;entryDx=0;entryDy=0;" parent="1" source="BNmCmgieaK2nJWvq4B3u-344" target="BNmCmgieaK2nJWvq4B3u-349" edge="1">
          <mxGeometry width="50" height="50" relative="1" as="geometry">
            <mxPoint x="3310" y="1030.9999999999998" as="sourcePoint" />
            <mxPoint x="3490" y="1053" as="targetPoint" />
          </mxGeometry>
        </mxCell>
        <mxCell id="BNmCmgieaK2nJWvq4B3u-351" value="Admin / Petugas Menghapus data" style="shape=parallelogram;perimeter=parallelogramPerimeter;whiteSpace=wrap;html=1;fixedSize=1;" parent="1" vertex="1">
          <mxGeometry x="3200" y="740" width="240" height="60" as="geometry" />
        </mxCell>
        <mxCell id="BNmCmgieaK2nJWvq4B3u-352" value="Klik hapus" style="rounded=0;whiteSpace=wrap;html=1;" parent="1" vertex="1">
          <mxGeometry x="3260" y="827" width="120" height="60" as="geometry" />
        </mxCell>
        <mxCell id="BNmCmgieaK2nJWvq4B3u-353" value="" style="endArrow=classic;html=1;rounded=0;exitX=0.5;exitY=1;exitDx=0;exitDy=0;entryX=0.5;entryY=0;entryDx=0;entryDy=0;" parent="1" source="BNmCmgieaK2nJWvq4B3u-343" target="BNmCmgieaK2nJWvq4B3u-351" edge="1">
          <mxGeometry width="50" height="50" relative="1" as="geometry">
            <mxPoint x="3450" y="930" as="sourcePoint" />
            <mxPoint x="3500" y="880" as="targetPoint" />
          </mxGeometry>
        </mxCell>
        <mxCell id="BNmCmgieaK2nJWvq4B3u-354" value="" style="endArrow=classic;html=1;rounded=0;exitX=0.5;exitY=1;exitDx=0;exitDy=0;entryX=0.5;entryY=0;entryDx=0;entryDy=0;" parent="1" source="BNmCmgieaK2nJWvq4B3u-351" target="BNmCmgieaK2nJWvq4B3u-352" edge="1">
          <mxGeometry width="50" height="50" relative="1" as="geometry">
            <mxPoint x="3450" y="930" as="sourcePoint" />
            <mxPoint x="3500" y="880" as="targetPoint" />
          </mxGeometry>
        </mxCell>
        <mxCell id="BNmCmgieaK2nJWvq4B3u-355" value="" style="endArrow=classic;html=1;rounded=0;exitX=0.5;exitY=1;exitDx=0;exitDy=0;entryX=0.5;entryY=0;entryDx=0;entryDy=0;" parent="1" source="BNmCmgieaK2nJWvq4B3u-352" target="BNmCmgieaK2nJWvq4B3u-344" edge="1">
          <mxGeometry width="50" height="50" relative="1" as="geometry">
            <mxPoint x="3450" y="930" as="sourcePoint" />
            <mxPoint x="3500" y="880" as="targetPoint" />
          </mxGeometry>
        </mxCell>
        <mxCell id="BNmCmgieaK2nJWvq4B3u-356" value="" style="endArrow=classic;html=1;rounded=0;exitX=0.5;exitY=1;exitDx=0;exitDy=0;entryX=0.5;entryY=0;entryDx=0;entryDy=0;" parent="1" source="BNmCmgieaK2nJWvq4B3u-349" target="BNmCmgieaK2nJWvq4B3u-346" edge="1">
          <mxGeometry width="50" height="50" relative="1" as="geometry">
            <mxPoint x="3440" y="1120" as="sourcePoint" />
            <mxPoint x="3490" y="1070" as="targetPoint" />
          </mxGeometry>
        </mxCell>
        <mxCell id="BNmCmgieaK2nJWvq4B3u-357" value="Mulai" style="ellipse;whiteSpace=wrap;html=1;" parent="1" vertex="1">
          <mxGeometry x="3810" y="560" width="80" height="50" as="geometry" />
        </mxCell>
        <mxCell id="BNmCmgieaK2nJWvq4B3u-358" value="" style="endArrow=classic;html=1;rounded=0;exitX=0.5;exitY=1;exitDx=0;exitDy=0;entryX=0.5;entryY=0;entryDx=0;entryDy=0;" parent="1" source="BNmCmgieaK2nJWvq4B3u-357" target="BNmCmgieaK2nJWvq4B3u-359" edge="1">
          <mxGeometry width="50" height="50" relative="1" as="geometry">
            <mxPoint x="3900" y="640" as="sourcePoint" />
            <mxPoint x="3850.0000000000005" y="630" as="targetPoint" />
          </mxGeometry>
        </mxCell>
        <mxCell id="BNmCmgieaK2nJWvq4B3u-359" value="User masuk ke halaman&lt;br&gt;Peminjaman" style="rounded=0;whiteSpace=wrap;html=1;" parent="1" vertex="1">
          <mxGeometry x="3750" y="635" width="200" height="80" as="geometry" />
        </mxCell>
        <mxCell id="BNmCmgieaK2nJWvq4B3u-360" value="Pinjam buku dengan meng-input&lt;br&gt;data yang di perlukan" style="shape=parallelogram;perimeter=parallelogramPerimeter;whiteSpace=wrap;html=1;fixedSize=1;" parent="1" vertex="1">
          <mxGeometry x="3930" y="945" width="235" height="73" as="geometry" />
        </mxCell>
        <mxCell id="BNmCmgieaK2nJWvq4B3u-361" value="Selesai" style="ellipse;whiteSpace=wrap;html=1;" parent="1" vertex="1">
          <mxGeometry x="3620" y="1045" width="80" height="50" as="geometry" />
        </mxCell>
        <mxCell id="BNmCmgieaK2nJWvq4B3u-362" value="&lt;span style=&quot;font-size: 22px;&quot;&gt;&lt;b&gt;Flowchart Peminjaman&lt;/b&gt;&lt;/span&gt;" style="text;html=1;strokeColor=none;fillColor=none;align=center;verticalAlign=middle;whiteSpace=wrap;rounded=0;" parent="1" vertex="1">
          <mxGeometry x="3710" y="470" width="280" height="33" as="geometry" />
        </mxCell>
        <mxCell id="BNmCmgieaK2nJWvq4B3u-363" value="Klik submit" style="rounded=0;whiteSpace=wrap;html=1;" parent="1" vertex="1">
          <mxGeometry x="3987.5" y="1050" width="120" height="40" as="geometry" />
        </mxCell>
        <mxCell id="BNmCmgieaK2nJWvq4B3u-365" value="Admin / Petugas masuk" style="shape=parallelogram;perimeter=parallelogramPerimeter;whiteSpace=wrap;html=1;fixedSize=1;" parent="1" vertex="1">
          <mxGeometry x="3540" y="757" width="240" height="60" as="geometry" />
        </mxCell>
        <mxCell id="BNmCmgieaK2nJWvq4B3u-366" value="Admin / Petugas bisa melihat data dan menghapus data" style="rounded=0;whiteSpace=wrap;html=1;" parent="1" vertex="1">
          <mxGeometry x="3575" y="860" width="170" height="60" as="geometry" />
        </mxCell>
        <mxCell id="BNmCmgieaK2nJWvq4B3u-368" value="" style="endArrow=classic;html=1;rounded=0;exitX=0.5;exitY=1;exitDx=0;exitDy=0;entryX=0.5;entryY=0;entryDx=0;entryDy=0;" parent="1" source="BNmCmgieaK2nJWvq4B3u-365" target="BNmCmgieaK2nJWvq4B3u-366" edge="1">
          <mxGeometry width="50" height="50" relative="1" as="geometry">
            <mxPoint x="3980" y="1185" as="sourcePoint" />
            <mxPoint x="4030" y="1135" as="targetPoint" />
          </mxGeometry>
        </mxCell>
        <mxCell id="BNmCmgieaK2nJWvq4B3u-371" value="Level ?" style="rhombus;whiteSpace=wrap;html=1;" parent="1" vertex="1">
          <mxGeometry x="3810" y="747" width="80" height="80" as="geometry" />
        </mxCell>
        <mxCell id="BNmCmgieaK2nJWvq4B3u-372" value="" style="endArrow=classic;html=1;rounded=0;exitX=0.5;exitY=1;exitDx=0;exitDy=0;entryX=0.5;entryY=0;entryDx=0;entryDy=0;" parent="1" source="BNmCmgieaK2nJWvq4B3u-359" target="BNmCmgieaK2nJWvq4B3u-371" edge="1">
          <mxGeometry width="50" height="50" relative="1" as="geometry">
            <mxPoint x="3810" y="970" as="sourcePoint" />
            <mxPoint x="3860" y="920" as="targetPoint" />
          </mxGeometry>
        </mxCell>
        <mxCell id="BNmCmgieaK2nJWvq4B3u-373" value="" style="endArrow=classic;html=1;rounded=0;exitX=0;exitY=0.5;exitDx=0;exitDy=0;entryX=1;entryY=0.5;entryDx=0;entryDy=0;" parent="1" source="BNmCmgieaK2nJWvq4B3u-371" target="BNmCmgieaK2nJWvq4B3u-365" edge="1">
          <mxGeometry width="50" height="50" relative="1" as="geometry">
            <mxPoint x="3860" y="910" as="sourcePoint" />
            <mxPoint x="3800" y="840" as="targetPoint" />
          </mxGeometry>
        </mxCell>
        <mxCell id="BNmCmgieaK2nJWvq4B3u-374" value="Peminjam masuk" style="shape=parallelogram;perimeter=parallelogramPerimeter;whiteSpace=wrap;html=1;fixedSize=1;" parent="1" vertex="1">
          <mxGeometry x="3927.5" y="757" width="240" height="60" as="geometry" />
        </mxCell>
        <mxCell id="BNmCmgieaK2nJWvq4B3u-375" value="" style="endArrow=classic;html=1;rounded=0;exitX=1;exitY=0.5;exitDx=0;exitDy=0;entryX=0;entryY=0.5;entryDx=0;entryDy=0;" parent="1" source="BNmCmgieaK2nJWvq4B3u-371" target="BNmCmgieaK2nJWvq4B3u-374" edge="1">
          <mxGeometry width="50" height="50" relative="1" as="geometry">
            <mxPoint x="3880" y="840" as="sourcePoint" />
            <mxPoint x="3930" y="790" as="targetPoint" />
          </mxGeometry>
        </mxCell>
        <mxCell id="BNmCmgieaK2nJWvq4B3u-376" value="Peminjam melihat data" style="rounded=0;whiteSpace=wrap;html=1;" parent="1" vertex="1">
          <mxGeometry x="3977.5" y="860" width="140" height="60" as="geometry" />
        </mxCell>
        <mxCell id="BNmCmgieaK2nJWvq4B3u-377" value="" style="endArrow=classic;html=1;rounded=0;exitX=0.5;exitY=1;exitDx=0;exitDy=0;entryX=0.5;entryY=0;entryDx=0;entryDy=0;" parent="1" source="BNmCmgieaK2nJWvq4B3u-374" target="BNmCmgieaK2nJWvq4B3u-376" edge="1">
          <mxGeometry width="50" height="50" relative="1" as="geometry">
            <mxPoint x="3880" y="840" as="sourcePoint" />
            <mxPoint x="3930" y="790" as="targetPoint" />
          </mxGeometry>
        </mxCell>
        <mxCell id="BNmCmgieaK2nJWvq4B3u-378" value="" style="endArrow=classic;html=1;rounded=0;exitX=0.5;exitY=1;exitDx=0;exitDy=0;entryX=0.5;entryY=0;entryDx=0;entryDy=0;" parent="1" source="BNmCmgieaK2nJWvq4B3u-376" target="BNmCmgieaK2nJWvq4B3u-360" edge="1">
          <mxGeometry width="50" height="50" relative="1" as="geometry">
            <mxPoint x="3880" y="1040" as="sourcePoint" />
            <mxPoint x="3930" y="990" as="targetPoint" />
          </mxGeometry>
        </mxCell>
        <mxCell id="BNmCmgieaK2nJWvq4B3u-379" value="" style="endArrow=classic;html=1;rounded=0;exitX=0.5;exitY=1;exitDx=0;exitDy=0;entryX=0.5;entryY=0;entryDx=0;entryDy=0;" parent="1" source="BNmCmgieaK2nJWvq4B3u-360" target="BNmCmgieaK2nJWvq4B3u-363" edge="1">
          <mxGeometry width="50" height="50" relative="1" as="geometry">
            <mxPoint x="3880" y="1040" as="sourcePoint" />
            <mxPoint x="3930" y="990" as="targetPoint" />
          </mxGeometry>
        </mxCell>
        <mxCell id="BNmCmgieaK2nJWvq4B3u-380" value="" style="endArrow=classic;html=1;rounded=0;exitX=0;exitY=0.5;exitDx=0;exitDy=0;entryX=1;entryY=0.5;entryDx=0;entryDy=0;" parent="1" source="BNmCmgieaK2nJWvq4B3u-363" target="BNmCmgieaK2nJWvq4B3u-361" edge="1">
          <mxGeometry width="50" height="50" relative="1" as="geometry">
            <mxPoint x="3880" y="1040" as="sourcePoint" />
            <mxPoint x="3930" y="990" as="targetPoint" />
          </mxGeometry>
        </mxCell>
        <mxCell id="BNmCmgieaK2nJWvq4B3u-383" value="" style="endArrow=classic;html=1;rounded=0;exitX=0.5;exitY=1;exitDx=0;exitDy=0;entryX=0.5;entryY=0;entryDx=0;entryDy=0;" parent="1" source="BNmCmgieaK2nJWvq4B3u-366" target="BNmCmgieaK2nJWvq4B3u-361" edge="1">
          <mxGeometry width="50" height="50" relative="1" as="geometry">
            <mxPoint x="3680" y="950" as="sourcePoint" />
            <mxPoint x="3660" y="960" as="targetPoint" />
          </mxGeometry>
        </mxCell>
      </root>
    </mxGraphModel>
  </diagram>
</mxfile>
